<?xml version="1.0" encoding="UTF-8" standalone="no"?>
<svg xmlns:svg="http://www.w3.org/2000/svg" xmlns="http://www.w3.org/2000/svg" xmlns:xlink="http://www.w3.org/1999/xlink" version="1.0" width="200px" height="200px" viewBox="-22 -22 170 170" xml:space="preserve">
<style type="text/css">
	svg {  }
	.cog { animation: rotating 4s ease-in-out infinite; transform-box: fill-box; transform-origin: 50% 50%; }
	.circle { animation: hide-show 2s infinite linear; }
	@keyframes rotating {
	  0% { transform:rotate(0deg); }
	  50% { transform:rotate(360deg); }
	  68% { transform:rotate(0deg); transform:scale(1); }
	  71% { transform:rotate(0deg); transform:scale(1); }
	  76% { transform:rotate(360deg); transform:scale(1.25); }
	  85% { transform:rotate(360deg); transform:scale(1); }
	  86% { transform:rotate(360deg); transform:scale(1); }
	  100% { transform:rotate(0deg); }
	}
	@keyframes hide-show { 0% { opacity: 0; } 50% { opacity: 1 } 100% { opacity: 0 } }
</style>
<rect x="0" y="0" width="100%" height="100%" fill="#FFFFFF"></rect><g><path class="cog" d="M124.67 48.84l-6.12 2.54a55.8 55.8 0 0 1 0 25.24l6.12 2.54a1.36 1.36 0 0 1 .74 1.78l-6.02 14.6a1.36 1.36 0 0 1-1.78.72l-6.13-2.53a55.8 55.8 0 0 1-17.85 17.85l2.55 6.12a1.36 1.36 0 0 1-.74 1.78l-14.6 6.04a1.36 1.36 0 0 1-1.77-.74l-2.53-6.1a55.82 55.82 0 0 1-25.25 0l-2.53 6.1a1.36 1.36 0 0 1-1.78.74l-14.6-6.04a1.36 1.36 0 0 1-.74-1.78l2.54-6.12A55.8 55.8 0 0 1 16.3 93.73l-6.1 2.53a1.36 1.36 0 0 1-1.8-.73l-6.03-14.6a1.36 1.36 0 0 1 .74-1.77l6.14-2.54a55.8 55.8 0 0 1 0-25.24L3.1 48.84a1.36 1.36 0 0 1-.73-1.77l6.05-14.6a1.36 1.36 0 0 1 1.77-.73l6.1 2.53a55.8 55.8 0 0 1 17.84-17.85L31.6 10.3a1.36 1.36 0 0 1 .74-1.78l14.6-6.04a1.36 1.36 0 0 1 1.78.73l2.53 6.15a55.82 55.82 0 0 1 25.25 0l2.53-6.12a1.36 1.36 0 0 1 1.78-.73l14.6 6.04a1.36 1.36 0 0 1 .77 1.78l-2.54 6.12A55.8 55.8 0 0 1 111.5 34.3l6.1-2.54a1.36 1.36 0 0 1 1.8.73l6.03 14.6a1.36 1.36 0 0 1-.73 1.75zm-60.8-14.8a30.1 30.1 0 1 0 30.1 30.1 30.1 30.1 0 0 0-30.1-30.1z" fill="#FF5B12"></path></g><g><circle class="circle" fill="#FF5B12" cx="63.88" cy="64" r="10.5"></circle></g></svg>
