<svg xmlns="http://www.w3.org/2000/svg" xmlns:xlink="http://www.w3.org/1999/xlink" id="Layer_1" x="0px" y="0px" viewBox="0 0 512 97.2" style="enable-background:new 0 0 512 97.2;" xml:space="preserve"><style type="text/css">	.st0{fill:#747474;}</style><path id="XMLID_11_" class="st0" d="M65.6,9.8c-2.6-1.4-10-0.6-18.8,2.2C31.2,22.7,18.1,38.3,17.1,63.4c-0.1,0.5-1.7-0.1-1.9-0.3  c-4.1-8-5.8-16.5-2.4-28.6c0.7-1.1-1.5-2.5-1.8-2.1c-0.8,0.8-4,4.1-6.1,7.9c-10.5,18.3-3.6,41.8,14.8,52s41.8,3.6,52.1-14.8  C83.7,56.2,72.6,13.7,65.6,9.8L65.6,9.8z"></path><path class="st0" d="M131.7,20.1c-21.9,0-37.8,16.3-37.8,38.6c0,22.6,15.8,38.3,38.5,38.3c11.5,0,20.5-3.6,27.7-10.9  c2.2-2.4,2.4-4.6,2.4-5.4c0-3.6-2.8-6.4-6.5-6.4c-1.9,0-3.5,0.7-5.3,2.4c-4.1,3.7-9.4,7.8-18.4,7.8c-12.5,0-22.6-9.3-23.1-21.3h49.4  c5.4,0,8-2.5,8-7.6c0-1.5,0-2.6-0.3-4.8C163.7,31.6,150.7,20.1,131.7,20.1L131.7,20.1z M131.7,32.1c11.9,0,19.5,7.6,19.9,19.8h-42.4  C110.4,40.6,120,32.1,131.7,32.1L131.7,32.1z"></path><path id="XMLID_8_" class="st0" d="M213.8,20.1c-10,0-19.8,5.7-23.7,13.7v-4.9c0-7.6-5.9-8-7.1-8c-3.5,0-7.2,2.1-7.2,8v59.2  c0,7.9,6.2,8.3,7.5,8.3s7.5-0.4,7.5-8.3V56.5c0-13.8,7.9-23.5,19.1-23.5c10.8,0,16.2,7.1,16.2,21.7v33.5c0,7.9,6.2,8.3,7.5,8.3  s7.5-0.4,7.5-8.3V50C241.2,35.4,234,20.1,213.8,20.1L213.8,20.1z"></path><path id="XMLID_7_" class="st0" d="M309.3,20.8c-3.5,0-6,2.1-7.5,5.9l-20.6,51.8l-20.5-51.8c-1.7-4-4.1-5.9-7.6-5.9  c-4.1,0-7.5,3.2-7.5,7.2c0,1,0.1,2.2,1,4.3l23.7,55.9c2.8,6.8,7.5,8.2,10.8,8.2c3.5,0,8-1.4,10.8-8.2L315.7,32c0.8-1.9,1-3.5,1-4.1  C316.8,23.8,313.6,20.8,309.3,20.8L309.3,20.8z"></path><path class="st0" d="M353.1,20.1c-9.7,0-18.5,2.6-25.2,7.6c-2.2,1.5-3.3,3.5-3.3,5.9c0,3.3,2.6,5.9,5.8,5.9c1.4,0,3-0.6,4.4-1.5  c5.7-3.9,11.1-5.5,16.9-5.5c11.1,0,17.6,5.7,17.6,15.5v1.7c-24.9,0-50.4,3-50.4,24.8c0,15.6,13.4,22.7,26.6,22.7  c10.5,0,19-4.1,24.4-12v3.7c0,5.7,3.7,7.6,7.1,7.6c0.7,0,6.8-0.3,6.8-7.6V49C383.7,30.9,372.3,20.1,353.1,20.1L353.1,20.1z   M366.1,60.6h3.2v3.5c0,12.7-8,20.9-20.6,20.9c-3.5,0-14.4-0.8-14.4-10.9C334.2,62,352.4,60.6,366.1,60.6z"></path><path id="XMLID_4_" class="st0" d="M423,34.5c6.6,0,6.9-5.1,6.9-6.1c0-3.1-1.8-6.4-6.9-6.4h-13.6V8.3c0-6.1-4-8.3-7.3-8.3  c-1.2,0-7.5,0.4-7.5,8.3v65.1c0,15,7.3,23,21.5,23c3.6,0,7.2-0.7,9.4-1.7c2.6-1.4,4.1-3.5,4.1-6c0-3.5-2.5-6-6-6  c-0.7,0-1.7,0.1-2.6,0.4c-1.2,0.3-2.2,0.4-3.2,0.4c-5.7,0-8.3-3.7-8.3-11.8V34.5L423,34.5L423,34.5z"></path><path class="st0" d="M472.7,20.1c-22.7,0-39.3,16.2-39.3,38.3c0,10.8,4,20.6,11.2,27.8c7.2,7.1,17.2,10.9,28,10.9  c22.4,0,39.5-16.6,39.5-38.6C512.1,36.3,495.5,20.1,472.7,20.1L472.7,20.1z M472.7,84.3c-15.6,0-23.8-13-23.8-25.9  c0-17.7,12.3-25.8,23.8-25.8s23.8,8,23.8,25.8C496.5,76.3,484.2,84.3,472.7,84.3z"></path></svg>