<svg xmlns="http://www.w3.org/2000/svg" xmlns:xlink="http://www.w3.org/1999/xlink" id="Isolation_Mode" x="0px" y="0px" viewBox="0 0 530.9 564.1" style="enable-background:new 0 0 530.9 564.1;" xml:space="preserve"><style type="text/css">	.st0{fill:#939393;}	.st1{opacity:0.6;}	.st2{opacity:0.5;}	.st3{opacity:0.4;}	.gear { animation: rotate 10s linear infinite; transform-box: fill-box; transform-origin: 50% 50%;  }	@keyframes rotate { 0% { transform: rotate(0deg); } 100% { transform: rotate(360deg); }}</style><g>	<g>		<path class="st0" d="M436.1,39.7l12.1,7l12.1-7l0-14l-12.1-7l-12.1,7L436.1,39.7z M436.4,25.9c0.2-0.1,11.6-6.7,11.8-6.8    c0.2,0.1,11.6,6.7,11.8,6.8c0,0.2,0,13.4,0,13.6c-0.2,0.1-11.6,6.7-11.8,6.8c-0.2-0.1-11.6-6.7-11.8-6.8    C436.4,39.3,436.4,26.1,436.4,25.9z"></path>	</g>	<g>		<path class="st0" d="M413.7,41l10,5.8l10-5.8l0-11.5l-10-5.8l-10,5.8L413.7,41z M414.1,29.6c0.2-0.1,9.5-5.5,9.6-5.6    c0.2,0.1,9.5,5.5,9.6,5.6c0,0.2,0,10.9,0,11.1c-0.2,0.1-9.5,5.5-9.6,5.6c-0.2-0.1-9.5-5.5-9.6-5.6    C414.1,40.6,414.1,29.8,414.1,29.6z"></path>	</g>	<g>		<path class="st0" d="M401.7,60.1l10,5.8l10-5.8l0-11.5l-10-5.8l-10,5.8L401.7,60.1z M402.1,48.8c0.2-0.1,9.5-5.5,9.6-5.6    c0.2,0.1,9.5,5.5,9.6,5.6c0,0.2,0,10.9,0,11.1c-0.2,0.1-9.5,5.5-9.6,5.6c-0.2-0.1-9.5-5.5-9.6-5.6C402.1,59.7,402.1,49,402.1,48.8    z"></path>	</g>	<g>		<path class="st0" d="M350.8,60.1l10,5.8l10-5.8l0-11.5l-10-5.8l-10,5.8L350.8,60.1z M351.2,48.8c0.2-0.1,9.5-5.5,9.6-5.6    c0.2,0.1,9.5,5.5,9.6,5.6c0,0.2,0,10.9,0,11.1c-0.2,0.1-9.5,5.5-9.6,5.6c-0.2-0.1-9.5-5.5-9.6-5.6C351.2,59.7,351.2,49,351.2,48.8    z"></path>	</g>	<g>		<path class="st0" d="M339.8,41.5l10,5.8l10-5.8l0-11.5l-10-5.8l-10,5.8L339.8,41.5z M340.2,30.2c0.2-0.1,9.5-5.5,9.6-5.6    c0.2,0.1,9.5,5.5,9.6,5.6c0,0.2,0,10.9,0,11.1c-0.2,0.1-9.5,5.5-9.6,5.6c-0.2-0.1-9.5-5.5-9.6-5.6    C340.2,41.1,340.2,30.4,340.2,30.2z"></path>	</g>	<g>		<path class="st0" d="M379.1,105.5l10.1,5.8l10.1-5.8l0-11.7l-10.1-5.8l-10.1,5.8L379.1,105.5z M379.5,94c0.2-0.1,9.6-5.5,9.8-5.6    c0.2,0.1,9.6,5.5,9.8,5.6c0,0.2,0,11.1,0,11.3c-0.2,0.1-9.6,5.5-9.8,5.6c-0.2-0.1-9.6-5.5-9.8-5.6    C379.5,105.1,379.5,94.2,379.5,94z"></path>	</g>	<g>		<path class="st0" d="M390.3,40.1l10,5.8l10-5.8l0-11.5l-10-5.8l-10,5.8L390.3,40.1z M390.7,28.8c0.2-0.1,9.5-5.5,9.6-5.6    c0.2,0.1,9.5,5.5,9.6,5.6c0,0.2,0,10.9,0,11.1c-0.2,0.1-9.5,5.5-9.6,5.6c-0.2-0.1-9.5-5.5-9.6-5.6C390.7,39.7,390.7,29,390.7,28.8    z"></path>	</g>	<g>		<path class="st0" d="M399.9,19l10,5.8l10-5.8l0-11.5l-10-5.8l-10,5.8L399.9,19z M400.2,7.7c0.2-0.1,9.5-5.5,9.6-5.6    c0.2,0.1,9.5,5.5,9.6,5.6c0,0.2,0,10.9,0,11.1c-0.2,0.1-9.5,5.5-9.6,5.6c-0.2-0.1-9.5-5.5-9.6-5.6C400.2,18.6,400.2,7.9,400.2,7.7    z"></path>	</g>	<g>		<path class="st0" d="M451.2,17.3l10,5.8l10-5.8l0-11.5l-10-5.8l-10,5.8L451.2,17.3z M451.6,6c0.2-0.1,9.5-5.5,9.6-5.6    c0.2,0.1,9.5,5.5,9.6,5.6c0,0.2,0,10.9,0,11.1c-0.2,0.1-9.5,5.5-9.6,5.6c-0.2-0.1-9.5-5.5-9.6-5.6C451.6,16.9,451.6,6.2,451.6,6z"></path>	</g>	<g>		<path class="st0" d="M339.4,82.3l10.7,6.2l10.7-6.2l0-12.4l-10.7-6.2l-10.7,6.2L339.4,82.3z M339.8,70.1c0.2-0.1,10.2-5.9,10.4-6    c0.2,0.1,10.2,5.9,10.4,6c0,0.2,0,11.8,0,12c-0.2,0.1-10.2,5.9-10.4,6c-0.2-0.1-10.2-5.9-10.4-6C339.8,81.9,339.8,70.3,339.8,70.1    z"></path>	</g>	<g>		<path class="st0" d="M389.1,85.2l12.8,7.4l12.8-7.4l0-14.8L402,62.9l-12.8,7.4L389.1,85.2z M389.5,70.5c0.2-0.1,12.3-7.1,12.5-7.2    c0.2,0.1,12.3,7.1,12.5,7.2c0,0.2,0,14.2,0,14.4c-0.2,0.1-12.3,7.1-12.5,7.2c-0.2-0.1-12.3-7.1-12.5-7.2    C389.5,84.8,389.5,70.7,389.5,70.5z"></path>	</g>	<g>		<path class="st0" d="M372.5,62l12.8,7.4l12.8-7.4l0-14.8l-12.8-7.4l-12.8,7.4L372.5,62z M372.8,47.4c0.2-0.1,12.3-7.1,12.5-7.2    c0.2,0.1,12.3,7.1,12.5,7.2c0,0.2,0,14.2,0,14.4c-0.2,0.1-12.3,7.1-12.5,7.2c-0.2-0.1-12.3-7.1-12.5-7.2    C372.8,61.6,372.8,47.6,372.8,47.4z"></path>	</g></g><g>	<g>		<rect x="203.4" y="397.5" class="st0" width="1.6" height="17.7"></rect>		<rect x="230" y="397.5" class="st0" width="1.6" height="17.7"></rect>		<rect x="208.7" y="404.6" class="st0" width="1.6" height="10.6"></rect>		<rect x="214" y="404.6" class="st0" width="1.6" height="10.6"></rect>		<rect x="219.3" y="404.6" class="st0" width="1.6" height="10.6"></rect>		<rect x="224.7" y="404.6" class="st0" width="1.6" height="10.6"></rect>		<rect x="203.4" y="397.5" class="st0" width="1.6" height="17.7"></rect>		<rect x="208.7" y="404.6" class="st0" width="1.6" height="10.6"></rect>		<rect x="214" y="404.6" class="st0" width="1.6" height="10.6"></rect>		<rect x="219.3" y="404.6" class="st0" width="1.6" height="10.6"></rect>		<rect x="224.7" y="404.6" class="st0" width="1.6" height="10.6"></rect>		<rect x="256.6" y="397.5" class="st0" width="1.6" height="17.7"></rect>		<rect x="235.3" y="404.6" class="st0" width="1.6" height="10.6"></rect>		<rect x="240.6" y="404.6" class="st0" width="1.6" height="10.6"></rect>		<rect x="246" y="404.6" class="st0" width="1.6" height="10.6"></rect>		<rect x="251.3" y="404.6" class="st0" width="1.6" height="10.6"></rect>		<rect x="235.3" y="404.6" class="st0" width="1.6" height="10.6"></rect>		<rect x="240.6" y="404.6" class="st0" width="1.6" height="10.6"></rect>		<rect x="246" y="404.6" class="st0" width="1.6" height="10.6"></rect>		<rect x="251.3" y="404.6" class="st0" width="1.6" height="10.6"></rect>		<rect x="277.9" y="397.5" class="st0" width="1.6" height="17.7"></rect>		<rect x="256.6" y="404.6" class="st0" width="1.6" height="10.6"></rect>		<rect x="261.9" y="404.6" class="st0" width="1.6" height="10.6"></rect>		<rect x="267.3" y="404.6" class="st0" width="1.6" height="10.6"></rect>		<rect x="272.6" y="404.6" class="st0" width="1.6" height="10.6"></rect>		<rect x="261.9" y="404.6" class="st0" width="1.6" height="10.6"></rect>		<rect x="267.3" y="404.6" class="st0" width="1.6" height="10.6"></rect>		<rect x="272.6" y="404.6" class="st0" width="1.6" height="10.6"></rect>		<rect x="304.5" y="397.5" class="st0" width="1.6" height="17.7"></rect>		<rect x="283.2" y="404.6" class="st0" width="1.6" height="10.6"></rect>		<rect x="288.6" y="404.6" class="st0" width="1.6" height="10.6"></rect>		<rect x="293.9" y="404.6" class="st0" width="1.6" height="10.6"></rect>		<rect x="299.2" y="404.6" class="st0" width="1.6" height="10.6"></rect>		<rect x="283.2" y="404.6" class="st0" width="1.6" height="10.6"></rect>		<rect x="288.6" y="404.6" class="st0" width="1.6" height="10.6"></rect>		<rect x="293.9" y="404.6" class="st0" width="1.6" height="10.6"></rect>		<rect x="299.2" y="404.6" class="st0" width="1.6" height="10.6"></rect>		<rect x="331.2" y="397.5" class="st0" width="1.6" height="17.7"></rect>		<rect x="309.9" y="404.6" class="st0" width="1.6" height="10.6"></rect>		<rect x="315.2" y="404.6" class="st0" width="1.6" height="10.6"></rect>		<rect x="320.5" y="404.6" class="st0" width="1.6" height="10.6"></rect>		<rect x="325.8" y="404.6" class="st0" width="1.6" height="10.6"></rect>		<rect x="309.9" y="404.6" class="st0" width="1.6" height="10.6"></rect>		<rect x="315.2" y="404.6" class="st0" width="1.6" height="10.6"></rect>		<rect x="320.5" y="404.6" class="st0" width="1.6" height="10.6"></rect>		<rect x="325.8" y="404.6" class="st0" width="1.6" height="10.6"></rect>		<rect x="357.8" y="397.5" class="st0" width="1.6" height="17.7"></rect>		<rect x="336.5" y="404.6" class="st0" width="1.6" height="10.6"></rect>		<rect x="341.8" y="404.6" class="st0" width="1.6" height="10.6"></rect>		<rect x="347.1" y="404.6" class="st0" width="1.6" height="10.6"></rect>		<rect x="352.5" y="404.6" class="st0" width="1.6" height="10.6"></rect>		<rect x="336.5" y="404.6" class="st0" width="1.6" height="10.6"></rect>		<rect x="341.8" y="404.6" class="st0" width="1.6" height="10.6"></rect>		<rect x="347.1" y="404.6" class="st0" width="1.6" height="10.6"></rect>		<rect x="352.5" y="404.6" class="st0" width="1.6" height="10.6"></rect>		<rect x="379.1" y="397.5" class="st0" width="1.6" height="17.7"></rect>		<rect x="357.8" y="404.6" class="st0" width="1.6" height="10.6"></rect>		<rect x="363.1" y="404.6" class="st0" width="1.6" height="10.6"></rect>		<rect x="368.4" y="404.6" class="st0" width="1.6" height="10.6"></rect>		<rect x="373.8" y="404.6" class="st0" width="1.6" height="10.6"></rect>		<rect x="363.1" y="404.6" class="st0" width="1.6" height="10.6"></rect>		<rect x="368.4" y="404.6" class="st0" width="1.6" height="10.6"></rect>		<rect x="373.8" y="404.6" class="st0" width="1.6" height="10.6"></rect>		<rect x="405.7" y="397.5" class="st0" width="1.6" height="17.7"></rect>		<rect x="384.4" y="404.6" class="st0" width="1.6" height="10.6"></rect>		<rect x="389.7" y="404.6" class="st0" width="1.6" height="10.6"></rect>		<rect x="395.1" y="404.6" class="st0" width="1.6" height="10.6"></rect>		<rect x="400.4" y="404.6" class="st0" width="1.6" height="10.6"></rect>		<rect x="384.4" y="404.6" class="st0" width="1.6" height="10.6"></rect>		<rect x="389.7" y="404.6" class="st0" width="1.6" height="10.6"></rect>		<rect x="395.1" y="404.6" class="st0" width="1.6" height="10.6"></rect>		<rect x="400.4" y="404.6" class="st0" width="1.6" height="10.6"></rect>	</g></g><g class="st1">	<g>		<rect x="84.8" y="209.9" class="st0" width="2.2" height="24.9"></rect>		<rect x="122.1" y="209.9" class="st0" width="2.2" height="24.9"></rect>		<rect x="92.3" y="219.9" class="st0" width="2.2" height="14.9"></rect>		<rect x="99.7" y="219.9" class="st0" width="2.2" height="14.9"></rect>		<rect x="107.2" y="219.9" class="st0" width="2.2" height="14.9"></rect>		<rect x="114.7" y="219.9" class="st0" width="2.2" height="14.9"></rect>		<rect x="84.8" y="209.9" class="st0" width="2.2" height="24.9"></rect>		<rect x="92.3" y="219.9" class="st0" width="2.2" height="14.9"></rect>		<rect x="99.7" y="219.9" class="st0" width="2.2" height="14.9"></rect>		<rect x="107.2" y="219.9" class="st0" width="2.2" height="14.9"></rect>		<rect x="114.7" y="219.9" class="st0" width="2.2" height="14.9"></rect>		<rect x="159.5" y="209.9" class="st0" width="2.2" height="24.9"></rect>		<rect x="129.6" y="219.9" class="st0" width="2.2" height="14.9"></rect>		<rect x="137.1" y="219.9" class="st0" width="2.2" height="14.9"></rect>		<rect x="144.6" y="219.9" class="st0" width="2.2" height="14.9"></rect>		<rect x="152" y="219.9" class="st0" width="2.2" height="14.9"></rect>		<rect x="129.6" y="219.9" class="st0" width="2.2" height="14.9"></rect>		<rect x="137.1" y="219.9" class="st0" width="2.2" height="14.9"></rect>		<rect x="144.6" y="219.9" class="st0" width="2.2" height="14.9"></rect>		<rect x="152" y="219.9" class="st0" width="2.2" height="14.9"></rect>		<rect x="189.4" y="209.9" class="st0" width="2.2" height="24.9"></rect>		<rect x="159.5" y="219.9" class="st0" width="2.2" height="14.9"></rect>		<rect x="167" y="219.9" class="st0" width="2.2" height="14.9"></rect>		<rect x="174.4" y="219.9" class="st0" width="2.2" height="14.9"></rect>		<rect x="181.9" y="219.9" class="st0" width="2.2" height="14.9"></rect>		<rect x="167" y="219.9" class="st0" width="2.2" height="14.9"></rect>		<rect x="174.4" y="219.9" class="st0" width="2.2" height="14.9"></rect>		<rect x="181.9" y="219.9" class="st0" width="2.2" height="14.9"></rect>		<rect x="226.7" y="209.9" class="st0" width="2.2" height="24.9"></rect>		<rect x="196.8" y="219.9" class="st0" width="2.2" height="14.9"></rect>		<rect x="204.3" y="219.9" class="st0" width="2.2" height="14.9"></rect>		<rect x="211.8" y="219.9" class="st0" width="2.2" height="14.9"></rect>		<rect x="219.3" y="219.9" class="st0" width="2.2" height="14.9"></rect>		<rect x="196.8" y="219.9" class="st0" width="2.2" height="14.9"></rect>		<rect x="204.3" y="219.9" class="st0" width="2.2" height="14.9"></rect>		<rect x="211.8" y="219.9" class="st0" width="2.2" height="14.9"></rect>		<rect x="219.3" y="219.9" class="st0" width="2.2" height="14.9"></rect>		<rect x="264.1" y="209.9" class="st0" width="2.2" height="24.9"></rect>		<rect x="234.2" y="219.9" class="st0" width="2.2" height="14.9"></rect>		<rect x="241.7" y="219.9" class="st0" width="2.2" height="14.9"></rect>		<rect x="249.1" y="219.9" class="st0" width="2.2" height="14.9"></rect>		<rect x="256.6" y="219.9" class="st0" width="2.2" height="14.9"></rect>		<rect x="234.2" y="219.9" class="st0" width="2.2" height="14.9"></rect>		<rect x="241.7" y="219.9" class="st0" width="2.2" height="14.9"></rect>		<rect x="249.1" y="219.9" class="st0" width="2.2" height="14.9"></rect>		<rect x="256.6" y="219.9" class="st0" width="2.2" height="14.9"></rect>		<rect x="301.4" y="209.9" class="st0" width="2.2" height="24.9"></rect>		<rect x="271.6" y="219.9" class="st0" width="2.2" height="14.9"></rect>		<rect x="279" y="219.9" class="st0" width="2.2" height="14.9"></rect>		<rect x="286.5" y="219.9" class="st0" width="2.2" height="14.9"></rect>		<rect x="294" y="219.9" class="st0" width="2.2" height="14.9"></rect>		<rect x="271.6" y="219.9" class="st0" width="2.2" height="14.9"></rect>		<rect x="279" y="219.9" class="st0" width="2.2" height="14.9"></rect>		<rect x="286.5" y="219.9" class="st0" width="2.2" height="14.9"></rect>		<rect x="294" y="219.9" class="st0" width="2.2" height="14.9"></rect>		<rect x="331.3" y="209.9" class="st0" width="2.2" height="24.9"></rect>		<rect x="301.4" y="219.9" class="st0" width="2.2" height="14.9"></rect>		<rect x="308.9" y="219.9" class="st0" width="2.2" height="14.9"></rect>		<rect x="316.4" y="219.9" class="st0" width="2.2" height="14.9"></rect>		<rect x="323.8" y="219.9" class="st0" width="2.2" height="14.9"></rect>		<rect x="308.9" y="219.9" class="st0" width="2.2" height="14.9"></rect>		<rect x="316.4" y="219.9" class="st0" width="2.2" height="14.9"></rect>		<rect x="323.8" y="219.9" class="st0" width="2.2" height="14.9"></rect>		<rect x="368.7" y="209.9" class="st0" width="2.2" height="24.9"></rect>		<rect x="338.8" y="219.9" class="st0" width="2.2" height="14.9"></rect>		<rect x="346.3" y="219.9" class="st0" width="2.2" height="14.9"></rect>		<rect x="353.7" y="219.9" class="st0" width="2.2" height="14.9"></rect>		<rect x="361.2" y="219.9" class="st0" width="2.2" height="14.9"></rect>		<rect x="338.8" y="219.9" class="st0" width="2.2" height="14.9"></rect>		<rect x="346.3" y="219.9" class="st0" width="2.2" height="14.9"></rect>		<rect x="353.7" y="219.9" class="st0" width="2.2" height="14.9"></rect>		<rect x="361.2" y="219.9" class="st0" width="2.2" height="14.9"></rect>	</g></g><g>	<g>		<g>			<path class="st0" d="M388.3,510.9l-6.7,11.3h6.5l6.7-11.3H388.3z M392.8,512c-0.8,1.4-5.1,8.6-5.3,9.1c-0.5,0-2.7,0-3.9,0     c0.8-1.4,5.1-8.6,5.3-9.1C389.4,512,391.6,512,392.8,512z"></path>		</g>		<g>			<path class="st0" d="M397.7,510.9l-6.7,11.3h6.5l6.7-11.3H397.7z M402.2,512c-0.8,1.4-5.1,8.6-5.3,9.1c-0.5,0-2.7,0-3.9,0     c0.8-1.4,5.1-8.6,5.3-9.1C398.8,512,401,512,402.2,512z"></path>		</g>		<g>			<path class="st0" d="M407.1,510.9l-6.7,11.3h6.5l6.7-11.3H407.1z M411.6,512c-0.8,1.4-5.1,8.6-5.3,9.1c-0.5,0-2.7,0-3.9,0     c0.8-1.4,5.1-8.6,5.3-9.1C408.2,512,410.4,512,411.6,512z"></path>		</g>		<g>			<path class="st0" d="M416.5,510.9l-6.7,11.3h6.5l6.7-11.3H416.5z M421,512c-0.8,1.4-5.1,8.6-5.3,9.1c-0.5,0-2.7,0-3.9,0     c0.8-1.4,5.1-8.6,5.3-9.1C417.6,512,419.8,512,421,512z"></path>		</g>		<g>			<path class="st0" d="M425.9,510.9l-6.7,11.3h6.5l6.7-11.3H425.9z M430.4,512c-0.8,1.4-5.1,8.6-5.3,9.1c-0.5,0-2.7,0-3.9,0     c0.8-1.4,5.1-8.6,5.3-9.1C427,512,429.2,512,430.4,512z"></path>		</g>		<g>			<path class="st0" d="M435.2,510.9l-6.7,11.3h6.5l6.7-11.3H435.2z M439.8,512c-0.8,1.4-5.1,8.6-5.3,9.1c-0.5,0-2.7,0-3.9,0     c0.8-1.4,5.1-8.6,5.3-9.1C436.3,512,438.6,512,439.8,512z"></path>		</g>	</g></g><g class="gear">	<path class="st0" d="M144.3,378.2c-0.1,1.7-1.5,3.1-3.2,3.1c-1.7,0-3.1-1.3-3.3-3l-0.1-0.7l-4.9,0.9l0.2,0.7c0.5,1.6-0.3,3.4-1.9,4   c-1.6,0.6-3.4-0.2-4.1-1.7l-0.3-0.6l-2.2,1.2l-2.1,1.3l0.4,0.5c1,1.4,0.8,3.3-0.4,4.4c-1.3,1.1-3.2,1-4.4-0.2l-0.5-0.5l-3.2,3.9   l0.6,0.4c1.5,0.9,1.9,2.8,1.1,4.3c-0.8,1.5-2.7,2.1-4.2,1.3l-0.6-0.3l-1.6,4.7l0.7,0.1c1.7,0.4,2.8,2,2.5,3.7   c-0.3,1.7-1.8,2.9-3.5,2.7l-0.7-0.1l0.1,5l0.7-0.1c1.7-0.2,3.3,0.9,3.6,2.6c0.3,1.7-0.7,3.3-2.4,3.7l-0.7,0.2l1.8,4.7l0.6-0.4   c1.5-0.8,3.4-0.3,4.3,1.2c0.9,1.5,0.4,3.4-1,4.3l-0.6,0.4l3.2,3.8l0.5-0.5c1.2-1.3,3.1-1.4,4.4-0.3c1.3,1.1,1.6,3,0.6,4.4l-0.4,0.6   l4.4,2.4l0.2-0.7c0.7-1.6,2.4-2.4,4.1-1.8c1.6,0.6,2.5,2.3,2,3.9l-0.2,0.7l4.9,0.8l0-0.7c0.1-1.7,1.5-3.1,3.2-3.1   c1.7,0,3.1,1.3,3.3,3l0,0.7l4.9-0.9l-0.3-0.7c-0.5-1.6,0.3-3.4,1.9-4c1.6-0.6,3.4,0.2,4.1,1.7l0.3,0.6l2.2-1.2l2.1-1.3l-0.4-0.5   c-1-1.4-0.8-3.3,0.5-4.4c1.3-1.1,3.2-1,4.4,0.2l0.5,0.5l3.2-3.9l-0.6-0.4c-1.4-0.9-1.9-2.8-1.1-4.3c0.8-1.5,2.7-2.1,4.2-1.3   l0.6,0.3l1.6-4.7l-0.7-0.1c-1.7-0.4-2.8-2-2.5-3.7c0.3-1.7,1.8-2.9,3.5-2.7l0.7,0.1l-0.1-5l-0.7,0.1c-1.7,0.2-3.3-0.9-3.6-2.6   c-0.3-1.7,0.7-3.3,2.4-3.7l0.7-0.2l-1.8-4.7l-0.6,0.4c-1.5,0.8-3.4,0.3-4.3-1.2c-0.9-1.5-0.4-3.4,1-4.3l0.6-0.4l-3.3-3.8l-0.5,0.6   c-1.2,1.3-3.1,1.4-4.4,0.3c-1.3-1.1-1.6-3-0.6-4.4l0.4-0.6l-4.4-2.4l-0.2,0.7c-0.7,1.6-2.4,2.4-4.1,1.8c-1.6-0.6-2.5-2.3-2-3.9   l0.2-0.7l-4.9-0.8V378.2z M141.2,382.6c2.1,0,3.8-1.6,4.3-3.6c0.6,0.1,1.7,0.3,2.3,0.4c0,0.2-0.1,0.4-0.1,0.5c0,1.9,1.2,3.6,3,4.3   c2,0.7,4.2-0.2,5.3-1.9c0.6,0.3,1.5,0.8,2,1.1c-0.3,0.6-0.5,1.3-0.5,2c0,1.3,0.6,2.6,1.6,3.5c1.7,1.3,4,1.2,5.6,0   c0.4,0.5,1.2,1.4,1.6,1.9c-0.9,0.9-1.5,2-1.5,3.2c0,0.8,0.2,1.6,0.6,2.3c1.1,1.8,3.3,2.5,5.2,1.9c0.2,0.6,0.6,1.7,0.9,2.3   c-1.7,0.7-2.8,2.3-2.8,4.1c0,0.3,0,0.6,0.1,0.8c0.4,2.1,2.2,3.6,4.3,3.6c0,0.7,0,1.7,0,2.3c-2.1,0.1-3.9,1.6-4.2,3.7   c0,0.2-0.1,0.5-0.1,0.7c0,1.8,1.2,3.4,2.9,4.1c-0.2,0.6-0.6,1.7-0.8,2.3c-2-0.6-4.2,0.1-5.2,2c-0.4,0.7-0.6,1.4-0.6,2.2   c0,1.3,0.6,2.5,1.5,3.3c-0.4,0.5-1.1,1.4-1.5,1.8c-1.7-1.2-4-1.3-5.6,0.1c-1,0.9-1.6,2.1-1.6,3.4c0,0.7,0.2,1.5,0.6,2.1   c-0.4,0.3-1,0.6-1,0.6c0,0-0.6,0.3-1,0.6c-1.1-1.7-3.3-2.5-5.3-1.8c-1.8,0.7-2.9,2.4-2.9,4.2c0,0.2,0.1,0.4,0.1,0.7   c-0.6,0.1-1.7,0.3-2.3,0.4c-0.5-2-2.2-3.5-4.4-3.5c-2.1,0-3.8,1.6-4.3,3.6c-0.6-0.1-1.7-0.3-2.3-0.4c0-0.2,0.1-0.4,0.1-0.5   c0-1.9-1.2-3.6-3-4.2c-2-0.7-4.2,0.2-5.3,1.9c-0.6-0.3-1.5-0.8-2-1.2c0.3-0.6,0.5-1.3,0.5-2c0-1.3-0.6-2.6-1.6-3.5   c-1.6-1.3-3.9-1.2-5.6,0c-0.4-0.5-1.2-1.4-1.6-1.9c0.9-0.9,1.5-2,1.5-3.2c0-0.8-0.2-1.6-0.6-2.3c-1.1-1.8-3.3-2.5-5.2-1.9   c-0.2-0.6-0.6-1.6-0.9-2.3c1.7-0.7,2.8-2.3,2.8-4.1c0-0.3,0-0.6-0.1-0.8c-0.4-2.1-2.2-3.6-4.3-3.6c0-0.7,0-1.7,0-2.3   c2.1-0.1,3.9-1.6,4.2-3.7c0-0.2,0.1-0.5,0.1-0.7c0-1.8-1.2-3.4-2.9-4.1c0.2-0.6,0.6-1.7,0.8-2.3c2,0.6,4.2-0.2,5.2-2   c0.4-0.7,0.6-1.4,0.6-2.2c0-1.3-0.6-2.5-1.5-3.4c0.4-0.5,1.1-1.4,1.5-1.8c1.7,1.2,4,1.3,5.6-0.1c1-0.9,1.5-2.1,1.5-3.4   c0-0.7-0.2-1.5-0.6-2.1c0.4-0.3,1-0.6,1-0.6s0.6-0.3,1-0.6c1.1,1.7,3.3,2.6,5.3,1.8c1.8-0.7,2.9-2.4,2.9-4.2c0-0.2-0.1-0.4-0.1-0.7   c0.6-0.1,1.7-0.3,2.3-0.4C137.3,381.1,139,382.6,141.2,382.6z"></path>	<path class="st0" d="M123.3,423.1l0.4,0.6c3.8,5,9.5,8.3,15.8,8.8l0.7,0.1L140,418l-0.5-0.1c-1.3-0.3-2.5-1-3.4-1.9l-0.3-0.3   L123.3,423.1z M135.7,417.2c0.9,0.8,1.9,1.4,3.1,1.7c0,0.7,0.1,10.8,0.2,12.2c-5.4-0.7-10.3-3.4-13.7-7.7   C126.4,422.7,135.1,417.5,135.7,417.2z"></path>	<path class="st0" d="M139.2,406.5c-1,0.6-1.8,1.6-2.1,2.8c-0.3,1.2-0.1,2.4,0.5,3.4c0.6,1,1.6,1.8,2.7,2.1c1.2,0.3,2.4,0.1,3.4-0.5   c2.1-1.3,2.8-4,1.6-6.1v0C144.1,405.9,141.4,405.2,139.2,406.5z M140.7,413.5c-0.8-0.2-1.5-0.7-2-1.5c-0.4-0.7-0.6-1.6-0.4-2.4   c0.2-0.8,0.7-1.5,1.5-2c1.5-0.9,3.5-0.4,4.4,1.1c0.3,0.5,0.5,1.1,0.5,1.6c0,1.1-0.6,2.2-1.6,2.8   C142.4,413.6,141.6,413.7,140.7,413.5z"></path>	<path class="st0" d="M121.1,401.6c-2.5,5.8-2.4,12.4,0.2,18.1l0.3,0.6l12.5-7.4l-0.1-0.5c-0.3-1.3-0.4-2.6,0-3.9l0.1-0.5l-12.7-7.1   L121.1,401.6z M120.6,410.4c0-2.6,0.5-5.2,1.5-7.6c1.2,0.6,10,5.6,10.6,6c-0.1,0.6-0.2,1.1-0.2,1.7c0,0.6,0.1,1.2,0.3,1.9   c-0.6,0.4-9.3,5.5-10.5,6.2C121.2,415.9,120.6,413.1,120.6,410.4z"></path>	<path class="st0" d="M138.9,388.3c-3.1,0.4-6.1,1.4-8.8,3c-2.7,1.6-5,3.7-6.8,6.3l-0.4,0.6l12.6,7.1l0.4-0.3l1.6-1.2   c0.5-0.3,1.2-0.6,1.8-0.8l0.5-0.1l-0.2-14.5L138.9,388.3z M130.8,392.4c2.3-1.4,4.9-2.2,7.6-2.6c0,1.3,0.1,11.4,0.2,12.2   c-0.6,0.2-1.1,0.4-1.6,0.7c0,0-0.9,0.7-1.4,1.1c-0.6-0.4-9.5-5.3-10.6-5.9C126.5,395.6,128.5,393.7,130.8,392.4z"></path>	<path class="st0" d="M143,402.7l0.5,0.1c1.3,0.3,2.5,1,3.4,1.9l0.3,0.3l12.5-7.4l-0.4-0.6c-3.7-5-9.5-8.3-15.8-8.8l-0.7-0.1   L143,402.7z M144.1,389.6c5.4,0.7,10.3,3.4,13.7,7.7c-1.1,0.7-9.8,5.9-10.5,6.2c-0.9-0.8-1.9-1.4-3.1-1.7   C144.3,401.1,144.1,391,144.1,389.6z"></path>	<path class="st0" d="M148.9,407.8l0.1,0.5c0.4,1.3,0.4,2.6,0,3.9l-0.1,0.5l12.7,7.1l0.3-0.6c2.5-5.8,2.4-12.4-0.2-18.1l-0.3-0.6   L148.9,407.8z M160.8,402.2c1.1,2.6,1.7,5.3,1.7,8.1c0,2.6-0.5,5.2-1.5,7.6c-1.2-0.7-10-5.6-10.6-6c0.1-0.5,0.2-1.1,0.2-1.7   c0-0.6-0.1-1.3-0.3-1.9C150.9,408.1,159.6,402.9,160.8,402.2z"></path>	<path class="st0" d="M147,415.8c-0.5,0.5-1,0.9-1.5,1.2c-0.5,0.3-1.1,0.6-1.8,0.8l-0.5,0.1l0.2,14.5l0.7-0.1c3.1-0.4,6.1-1.4,8.8-3   c2.7-1.6,5-3.7,6.8-6.3l0.4-0.6l-12.7-7.1L147,415.8z M146.1,418.1c0.5-0.3,1-0.7,1.4-1.1c0.6,0.4,9.5,5.3,10.6,5.9   c-1.6,2.2-3.6,4-5.9,5.4c-2.3,1.4-4.9,2.2-7.6,2.6c0-1.3-0.1-11.4-0.2-12.2C145.1,418.6,145.7,418.4,146.1,418.1z"></path></g><g class="gear">	<path class="st0" d="M51.8,339.2c0.2,3-2,5.7-5,6c-3,0.3-5.8-1.7-6.3-4.7l-0.1-0.5l-0.5,0.1c-1.9,0.5-3.8,1-5.5,1.7l-0.5,0.2   l0.2,0.5c1.2,2.8,0,6-2.7,7.4c-2.7,1.4-6,0.4-7.5-2.2l-0.3-0.4l-0.4,0.3c-1.5,1-3.1,2.2-4.6,3.4l-0.4,0.3l0.4,0.4   c2.1,2.2,2.1,5.7,0,7.8c-2.1,2.2-5.5,2.4-7.8,0.5l-0.4-0.3l-0.3,0.4c-1.1,1.5-2.1,3.1-3.1,4.8l-0.3,0.4l0.5,0.2   c2.7,1.4,3.9,4.6,2.7,7.4c-1.2,2.8-4.4,4.2-7.2,3.1l-0.5-0.2L2,376.4c-0.6,2-1,3.8-1.3,5.6l-0.1,0.5l0.5,0.1c3,0.4,5.2,3,5.1,6   c-0.2,3-2.7,5.4-5.7,5.4L0,394l0,0.5c0.1,2,0.3,3.9,0.7,5.7l0.1,0.5l0.5-0.1c3-0.7,6,1,6.8,3.9c0.9,2.9-0.7,6-3.5,7l-0.5,0.2   l0.2,0.5c0.7,1.6,1.6,3.4,2.6,5.1l0.3,0.4l0.4-0.3c2.5-1.7,5.9-1.1,7.8,1.3c1.8,2.4,1.4,5.8-0.9,7.8l-0.4,0.3l2.4,2.4   c0,0,2.5,2.2,2.5,2.2l0.3-0.4c1.8-2.4,5.2-3.1,7.7-1.4c2.5,1.6,3.3,5,1.8,7.6l-0.3,0.4l0.5,0.2c1.7,0.9,3.5,1.6,5.3,2.3l0.5,0.2   L35,440c0.9-2.9,3.8-4.7,6.8-4c2.9,0.7,4.8,3.6,4.3,6.6l-0.1,0.5l0.5,0.1c2,0.2,3.9,0.3,5.7,0.3l0.5,0l0-0.5c-0.2-3,2-5.7,5-6   c3-0.4,5.8,1.7,6.3,4.7l0.1,0.5l0.5-0.1c1.9-0.4,3.8-1,5.5-1.6l0.5-0.2l-0.2-0.5c-1.2-2.8,0-6,2.7-7.4c2.7-1.4,6-0.4,7.5,2.2   l0.3,0.4l0.4-0.3c1.6-1.1,3.2-2.2,4.6-3.4l0.4-0.3l-0.3-0.4c-2.1-2.2-2.1-5.7,0-7.9c2-2.2,5.5-2.4,7.8-0.5l0.4,0.3l0.3-0.4   c1.1-1.5,2.1-3,3.1-4.8l0.3-0.4l-0.5-0.2c-2.7-1.4-3.9-4.6-2.7-7.4c1.2-2.8,4.3-4.1,7.2-3.1l0.5,0.2l0.1-0.5c0.5-1.9,1-3.8,1.3-5.6   l0.1-0.5l-0.5-0.1c-3-0.4-5.2-3-5.1-6c0.2-3,2.7-5.4,5.7-5.4l0.5,0l0-0.5c-0.1-2.1-0.4-4-0.7-5.7l-0.1-0.5l-0.5,0.1   c-3,0.7-6-1-6.8-3.9c-0.9-2.9,0.7-6,3.5-7l0.5-0.2l-0.2-0.5c-0.7-1.7-1.6-3.4-2.6-5.1l-0.3-0.4l-0.4,0.3c-2.5,1.7-5.9,1.1-7.7-1.3   c-1.8-2.4-1.4-5.8,0.9-7.8l0.4-0.3l-2.4-2.4l-2.5-2.2l-0.3,0.4c-1.8,2.4-5.2,3-7.7,1.4c-2.5-1.7-3.3-5-1.8-7.6l0.3-0.4l-0.5-0.2   c-1.8-0.9-3.5-1.6-5.3-2.3l-0.5-0.2l-0.1,0.5c-0.9,2.9-3.9,4.7-6.8,4c-2.9-0.7-4.8-3.6-4.3-6.6l0.1-0.5L58,339   c-1.9-0.2-3.8-0.3-5.7-0.3l-0.5,0L51.8,339.2z M46.9,346.2c3.3-0.4,5.8-3.2,5.9-6.5c1.6,0,3.2,0.1,4.7,0.2c0,0.2-0.1,0.4-0.1,0.6   c0,3.1,2.1,5.8,5.1,6.5c3.3,0.8,6.5-1.1,7.7-4.1c1.4,0.5,2.9,1.2,4.4,1.9c-0.4,0.9-0.7,1.9-0.7,2.8c0,2.2,1.1,4.3,3,5.6   c2.8,1.8,6.5,1.2,8.7-1.2c0.5,0.4,1.8,1.6,1.8,1.6s1.1,1.1,1.7,1.7c-1.3,1.3-2,3-2,4.7c0,1.4,0.4,2.8,1.3,4c2,2.7,5.7,3.4,8.6,1.8   c0.8,1.4,1.5,2.9,2.2,4.3c-2.4,1.1-3.9,3.5-3.9,6c0,0.6,0.1,1.3,0.3,1.9c1,3.2,4.2,5.1,7.5,4.6c0.2,1.4,0.4,3,0.5,4.7   c-3.3,0.3-5.9,2.9-6.1,6.3c0,0.1,0,0.3,0,0.4c0,3.2,2.3,5.9,5.4,6.5c-0.3,1.5-0.6,3.1-1.1,4.6c-3.2-0.9-6.6,0.7-7.9,3.8   c-0.4,0.8-0.5,1.7-0.5,2.6c0,2.3,1.2,4.5,3.3,5.7c-0.9,1.5-1.7,2.8-2.6,4c-2.7-1.9-6.4-1.6-8.7,0.8c-1.2,1.3-1.8,2.9-1.8,4.6   c0,1.5,0.5,3,1.5,4.2c-1.2,1-2.5,1.9-3.8,2.8c-1.9-2.7-5.5-3.7-8.4-2.2c-2.3,1.2-3.7,3.5-3.7,6c0,0.7,0.2,1.4,0.4,2.2   c-1.4,0.5-3,1-4.6,1.4c-0.8-3.2-3.9-5.3-7.2-4.9c-3.3,0.4-5.8,3.2-5.9,6.5c-1.5,0-3.1-0.1-4.7-0.2c0-0.2,0.1-0.4,0.1-0.6   c0-3.1-2.1-5.8-5.2-6.5c-3.3-0.8-6.5,1-7.7,4.1c-1.5-0.6-2.9-1.2-4.4-1.9c0.4-0.9,0.7-1.9,0.7-2.8c0-2.2-1.1-4.3-3-5.6   c-2.8-1.8-6.5-1.2-8.7,1.3c-0.5-0.4-1.8-1.6-1.8-1.6s-1.1-1.1-1.7-1.7c1.3-1.3,2-3,2-4.8c0-1.4-0.4-2.8-1.3-4   c-2-2.7-5.7-3.4-8.6-1.8c-0.8-1.5-1.5-2.9-2.2-4.3c2.4-1.1,3.9-3.5,3.9-6c0-0.6-0.1-1.3-0.3-1.9c-1-3.2-4.2-5.1-7.4-4.6   c-0.3-1.5-0.4-3.1-0.5-4.7c3.3-0.3,5.9-2.9,6.1-6.3c0-0.1,0-0.2,0-0.4c0-3.2-2.3-5.9-5.4-6.5c0.3-1.5,0.6-3,1.1-4.6   c3.2,0.9,6.6-0.7,7.9-3.7c0.4-0.8,0.5-1.7,0.5-2.6c0-2.3-1.2-4.5-3.3-5.7c0.9-1.4,1.7-2.8,2.6-4c2.7,1.9,6.4,1.6,8.7-0.8   c1.2-1.3,1.8-2.9,1.8-4.6c0-1.5-0.5-3-1.5-4.2c1.3-1,2.5-2,3.8-2.8c1.9,2.7,5.5,3.7,8.5,2.2c2.3-1.2,3.6-3.5,3.6-6   c0-0.7-0.1-1.4-0.4-2.1c1.4-0.5,3-1,4.6-1.4C40.5,344.5,43.5,346.6,46.9,346.2z"></path>	<path class="st0" d="M30.7,361.9l-0.4,0.3l3.6,4.2l0.4-0.3c5.3-4.5,12.1-6.6,19-6l0.5,0l0.5-5.5l-0.5,0   C45.3,353.8,37.1,356.4,30.7,361.9z M53.2,355.5c-0.1,0.7-0.3,2.9-0.3,3.6c-6.9-0.5-13.5,1.7-18.9,6c-0.4-0.5-1.8-2.2-2.3-2.7   C37.7,357.3,45.3,354.9,53.2,355.5z"></path>	<path class="st0" d="M76.9,372.7l0.3,0.4c4.5,5.3,6.6,12.1,6.1,19.1l0,0.5l5.5,0.5l0-0.5c0.7-8.4-1.9-16.6-7.3-23.1l-0.3-0.4   L76.9,372.7z M81,370.5c4.5,5.5,6.9,12.3,6.9,19.3c0,0.7,0,1.5-0.1,2.2c-0.7-0.1-2.9-0.3-3.6-0.3c0-0.6,0.1-1.2,0.1-1.9   c0-6.2-2.1-12.2-6.1-17C78.7,372.4,80.4,371,81,370.5z"></path>	<path class="st0" d="M70.3,416.1c-5.4,4.5-12.1,6.7-19.1,6l-0.5,0l-0.5,5.5l0.5,0c8.4,0.7,16.6-1.9,23.1-7.3l0.4-0.3l-3.5-4.2   L70.3,416.1z M70.5,417.1c0.4,0.5,1.9,2.2,2.3,2.8c-6.1,5-13.7,7.4-21.5,6.8c0.1-0.7,0.3-2.9,0.3-3.6   C58.5,423.6,65.1,421.4,70.5,417.1z"></path>	<path class="st0" d="M51.4,366.1c-6.7,0.2-12.9,3-17.4,7.9c-4.5,4.8-6.8,11-6.8,17.1c0,6.7,2.6,13.3,7.9,18.2   c10.1,9.4,25.9,8.9,35.4-1.2c4.6-4.9,7-11.2,6.7-17.9c-0.2-6.7-3-12.9-7.9-17.4C64.5,368.2,58.1,365.9,51.4,366.1z M35.8,408.6   c-9.7-9.1-10.2-24.3-1.1-34l0,0c4.4-4.7,10.3-7.4,16.7-7.6c6.4-0.2,12.5,2.1,17.2,6.5c4.7,4.4,7.4,10.3,7.6,16.8   c0.2,6.4-2.1,12.5-6.5,17.2C60.7,417.2,45.5,417.7,35.8,408.6z M34,374L34,374L34,374z"></path>	<path class="st0" d="M15.7,389.6c-0.7,8.4,1.9,16.6,7.3,23.1l0.3,0.4l0.4-0.3l3.9-3.2l-0.3-0.4c-4.5-5.3-6.7-12.1-6-19.1l0-0.5   l-5.5-0.5L15.7,389.6z M16.5,392.4c0-0.7,0-1.5,0.1-2.2c0.7,0.1,2.9,0.2,3.6,0.3c0,0.6-0.1,1.3-0.1,1.9c0,6.2,2.1,12.1,6.1,17   c-0.5,0.4-2.2,1.8-2.8,2.3C19,406.1,16.5,399.4,16.5,392.4z"></path></g><g>	<g>		<g>			<path class="st0" d="M335.2,463.6c-3,1.9-5.1,4.8-5.9,8.1c-0.9,3.6-0.3,7.3,1.6,10.5c4,6.3,12.3,8.2,18.6,4.3l0,0     c3-1.9,5.2-4.9,6-8.4c0.8-3.5,0.2-7.1-1.7-10.2c-1.9-3.1-4.9-5.2-8.4-6C341.8,461.1,338.2,461.7,335.2,463.6z M332,481.5     c-1.8-2.8-2.3-6.2-1.5-9.5c0.8-3.1,2.7-5.7,5.4-7.4c2.8-1.7,6.1-2.3,9.2-1.5c3.2,0.7,5.9,2.7,7.6,5.4c1.2,2,1.9,4.2,1.9,6.5     c0,0.9-0.1,1.8-0.3,2.8c-0.7,3.2-2.7,5.9-5.4,7.6C343.1,489,335.5,487.2,332,481.5z"></path>		</g>		<g>			<path class="st0" d="M332.5,472.8c-1.3,5.4,2.1,10.8,7.5,12.1h0c5.4,1.2,10.8-2.2,12.1-7.6c0.6-2.6,0.1-5.3-1.3-7.6     c-1.4-2.3-3.7-3.9-6.3-4.5C339.2,464,333.8,467.4,332.5,472.8z M333.5,475c0-0.7,0.1-1.3,0.2-2c1.1-4.7,5.8-7.7,10.5-6.6     c2.3,0.5,4.2,1.9,5.5,3.9c1.3,2,1.7,4.4,1.1,6.7c-1.1,4.7-5.8,7.7-10.6,6.6C336.3,482.7,333.5,479,333.5,475z"></path>		</g>		<g class="gear">			<path class="st0" d="M342,453c-2.2,0-4.4,0.4-6.5,1.1l-1.4,0.5l0.7,1.3c0.9,1.7,0.3,3.8-1.3,4.8c-1.6,1-3.8,0.6-4.9-0.9l-0.9-1.2     l-1.1,1.1c-1.5,1.6-2.8,3.4-3.8,5.4l-0.7,1.4l1.4,0.5c1.8,0.6,2.9,2.5,2.5,4.4c-0.4,1.9-2.2,3.1-4.1,2.8l-1.5-0.2l0,1.5     c0,2.2,0.4,4.4,1.1,6.5l0.5,1.4l1.3-0.7c1.7-0.9,3.8-0.3,4.8,1.3c1,1.6,0.6,3.8-0.9,4.9l-1.2,0.9l1.1,1.1     c1.6,1.5,3.4,2.8,5.4,3.8l1.4,0.7l0.5-1.4c0.6-1.8,2.5-2.9,4.3-2.5c1.9,0.4,3.1,2.2,2.8,4.1l-0.2,1.5l1.5,0     c2.2,0,4.4-0.4,6.5-1.1l1.4-0.5l-0.7-1.3c-0.9-1.7-0.3-3.8,1.3-4.8c1.6-1,3.8-0.6,4.9,0.9l0.9,1.2l1.1-1.1     c1.5-1.6,2.8-3.4,3.8-5.4l0.7-1.4l-1.4-0.5c-1.8-0.6-2.9-2.5-2.5-4.4c0.4-1.9,2.2-3.1,4.1-2.8l1.5,0.2l0-1.5     c0-2.2-0.4-4.4-1.1-6.5l-0.5-1.4l-1.3,0.7c-1.7,0.9-3.8,0.3-4.8-1.3c-1-1.6-0.6-3.8,0.9-4.9l1.2-0.9l-1.1-1.1     c-1.6-1.6-3.4-2.9-5.4-3.8l-1.4-0.7l-0.5,1.4c-0.6,1.8-2.5,2.9-4.4,2.5c-1.9-0.4-3.1-2.2-2.8-4.1l0.2-1.5L342,453z M335.8,455.3     c2-0.7,4-1,6.1-1c0,0,0,0,0,0c0,0,0,0,0,0c0,0.2,0,0.5,0,0.7c0,2.3,1.6,4.3,3.9,4.8c2.5,0.6,5.1-0.9,5.8-3.3c0,0,0,0,0,0     c0,0,0,0,0,0c1.9,0.9,3.6,2.1,5.1,3.6c0,0,0,0,0,0c0,0,0,0,0,0c-1.3,1-2,2.5-2,4c0,0.9,0.2,1.8,0.7,2.6c1.4,2.2,4.2,2.9,6.5,1.8     c0,0,0,0,0,0c0,0,0,0,0,0c0.6,2,1,4,1,6.1c0,0,0,0,0,0c0,0,0,0,0,0c-2.6-0.4-5,1.3-5.5,3.8c-0.1,0.4-0.1,0.7-0.1,1.1     c0,2.1,1.4,4.1,3.5,4.7c0,0,0,0,0,0c0,0,0,0,0,0c-0.9,1.9-2.2,3.6-3.6,5.1c0,0,0,0,0,0c0,0,0,0,0,0c-1.6-2.1-4.4-2.6-6.6-1.2     c-1.5,0.9-2.3,2.6-2.3,4.2c0,0.8,0.2,1.5,0.5,2.3c0,0,0,0,0,0c0,0,0,0,0,0c-2,0.7-4,1-6.1,1c0,0,0,0,0,0c0,0,0,0,0,0     c0-0.2,0.1-0.5,0.1-0.7c0-2.3-1.6-4.3-3.9-4.8c-2.5-0.6-5.1,0.9-5.8,3.3c0,0,0,0,0,0c0,0,0,0,0,0c-1.9-0.9-3.6-2.2-5.1-3.6     c0,0,0,0,0,0c0,0,0,0,0,0c1.3-1,2-2.5,2-4c0-0.9-0.2-1.8-0.7-2.6c-1.4-2.2-4.2-3-6.5-1.8c0,0,0,0,0,0c0,0,0,0,0,0     c-0.6-2-1-4.1-1-6.1c0,0,0,0,0,0c0,0,0,0,0,0c2.5,0.4,5-1.3,5.5-3.8c0.1-0.4,0.1-0.8,0.1-1.1c0-2.1-1.4-4-3.5-4.7c0,0,0,0,0,0     c0,0,0,0,0,0c1-1.9,2.2-3.6,3.6-5.1c0,0,0,0,0,0c0,0,0,0,0,0c1.5,2.1,4.4,2.6,6.6,1.2c1.5-0.9,2.3-2.6,2.3-4.2     C336.4,456.8,336.2,456,335.8,455.3C335.8,455.3,335.8,455.3,335.8,455.3C335.8,455.3,335.8,455.3,335.8,455.3z"></path>		</g>	</g></g><g>	<g>		<polygon class="st0" points="417.9,494.3 417.9,491 420.8,492.7 423.6,494.3 420.8,496 417.9,497.6   "></polygon>		<polygon class="st0" points="424.4,494.3 424.4,491 427.3,492.7 430.1,494.3 427.3,496 424.4,497.6   "></polygon>		<polygon class="st0" points="431,494.3 431,491 433.8,492.7 436.6,494.3 433.8,496 431,497.6   "></polygon>	</g>	<g>		<path class="st0" d="M410.6,494.8h3.9v-1h-3.9V494.8z M402.8,494.8h3.9v-1h-3.9V494.8z M394.9,494.8h3.9v-1h-3.9V494.8z     M387.1,494.8h3.9v-1h-3.9V494.8z M379.2,494.8h3.9v-1h-3.9V494.8z M371.3,494.8h3.9v-1h-3.9V494.8z M363.5,494.8h3.9v-1h-3.9    V494.8z M355.6,494.8h3.9v-1h-3.9V494.8z M347.8,494.8h3.9v-1h-3.9V494.8z M339.9,494.8h3.9v-1h-3.9V494.8z M332.1,494.8h3.9v-1    h-3.9V494.8z M324.2,494.8h3.9v-1h-3.9V494.8z M316.3,494.8h3.9v-1h-3.9V494.8z M308.5,494.8h3.9v-1h-3.9V494.8z M300.6,494.8h3.9    v-1h-3.9V494.8z M292.8,494.8h3.9v-1h-3.9V494.8z M284.9,494.8h3.9v-1h-3.9V494.8z M277,494.8h3.9v-1H277V494.8z M269.2,494.8h3.9    v-1h-3.9V494.8z M261.3,494.8h3.9v-1h-3.9V494.8z M253.5,494.8h3.9v-1h-3.9V494.8z M245.6,494.8h3.9v-1h-3.9V494.8z M237.7,494.8    h3.9v-1h-3.9V494.8z M229.9,494.8h3.9v-1h-3.9V494.8z M222,494.8h3.9v-1H222V494.8z"></path>	</g>	<g>		<polygon class="st0" points="222.1,300 218.8,300 220.5,297.2 222.1,294.3 223.7,297.2 225.4,300   "></polygon>		<polygon class="st0" points="222.1,293.5 218.8,293.5 220.5,290.6 222.1,287.8 223.7,290.6 225.4,293.5   "></polygon>		<polygon class="st0" points="222.1,287 218.8,287 220.5,284.1 222.1,281.3 223.7,284.1 225.4,287   "></polygon>	</g>	<g>		<path class="st0" d="M222.6,307.3v-3.9h-1v3.9H222.6z M222.6,315.1v-3.9h-1v3.9H222.6z M222.6,323v-3.9h-1v3.9H222.6z     M222.6,330.9v-3.9h-1v3.9H222.6z M222.6,338.7v-3.9h-1v3.9H222.6z M222.6,346.6v-3.9h-1v3.9H222.6z M222.6,354.4v-3.9h-1v3.9    H222.6z M222.6,362.3v-3.9h-1v3.9H222.6z M222.6,370.2v-3.9h-1v3.9H222.6z M222.6,378v-3.9h-1v3.9H222.6z M222.6,385.9v-3.9h-1    v3.9H222.6z M222.6,393.7v-3.9h-1v3.9H222.6z M222.6,401.6v-3.9h-1v3.9H222.6z M222.6,409.5v-3.9h-1v3.9H222.6z M222.6,417.3v-3.9    h-1v3.9H222.6z M222.6,425.2v-3.9h-1v3.9H222.6z M222.6,433v-3.9h-1v3.9H222.6z M222.6,440.9V437h-1v3.9H222.6z M222.6,448.8v-3.9    h-1v3.9H222.6z M222.6,456.6v-3.9h-1v3.9H222.6z M222.6,464.5v-3.9h-1v3.9H222.6z M222.6,472.3v-3.9h-1v3.9H222.6z M222.6,480.2    v-3.9h-1v3.9H222.6z M222.6,488v-3.9h-1v3.9H222.6z M222.6,495.9V492h-1v3.9H222.6z"></path>	</g>	<path class="st0" d="M225.9,494.3c0,2.2-1.8,3.9-3.9,3.9c-2.2,0-3.9-1.8-3.9-3.9c0-2.2,1.8-3.9,3.9-3.9   C224.2,490.4,225.9,492.2,225.9,494.3z"></path></g><g>	<g>		<polygon class="st0" points="360.7,358.5 360.7,354.8 363.9,356.6 367.2,358.5 363.9,360.4 360.7,362.3   "></polygon>		<polygon class="st0" points="368.2,358.5 368.2,354.8 371.4,356.6 374.7,358.5 371.4,360.4 368.2,362.3   "></polygon>		<polygon class="st0" points="375.6,358.5 375.6,354.8 378.9,356.6 382.1,358.5 378.9,360.4 375.6,362.3   "></polygon>	</g>	<g>		<path class="st0" d="M352.3,359.1h4.5V358h-4.5V359.1z M343.3,359.1h4.5V358h-4.5V359.1z M334.3,359.1h4.5V358h-4.5V359.1z     M325.3,359.1h4.5V358h-4.5V359.1z M316.3,359.1h4.5V358h-4.5V359.1z M307.3,359.1h4.5V358h-4.5V359.1z M298.3,359.1h4.5V358h-4.5    V359.1z M289.3,359.1h4.5V358h-4.5V359.1z M280.3,359.1h4.5V358h-4.5V359.1z M271.3,359.1h4.5V358h-4.5V359.1z M262.3,359.1h4.5    V358h-4.5V359.1z M253.3,359.1h4.5V358h-4.5V359.1z M244.3,359.1h4.5V358h-4.5V359.1z M235.3,359.1h4.5V358h-4.5V359.1z     M226.2,359.1h4.5V358h-4.5V359.1z M217.2,359.1h4.5V358h-4.5V359.1z M208.2,359.1h4.5V358h-4.5V359.1z M199.2,359.1h4.5V358h-4.5    V359.1z M190.2,359.1h4.5V358h-4.5V359.1z M181.2,359.1h4.5V358h-4.5V359.1z M172.2,359.1h4.5V358h-4.5V359.1z M163.2,359.1h4.5    V358h-4.5V359.1z M154.2,359.1h4.5V358h-4.5V359.1z M145.2,359.1h4.5V358h-4.5V359.1z M136.2,359.1h4.5V358h-4.5V359.1z"></path>	</g>	<g>		<polygon class="st0" points="136.3,135.8 132.5,135.8 134.4,132.6 136.3,129.3 138.2,132.6 140,135.8   "></polygon>		<polygon class="st0" points="136.3,128.4 132.5,128.4 134.4,125.1 136.3,121.8 138.2,125.1 140,128.4   "></polygon>		<polygon class="st0" points="136.3,120.9 132.5,120.9 134.4,117.6 136.3,114.4 138.2,117.6 140,120.9   "></polygon>	</g>	<g>		<path class="st0" d="M136.8,144.2v-4.5h-1.1v4.5H136.8z M136.8,153.2v-4.5h-1.1v4.5H136.8z M136.8,162.2v-4.5h-1.1v4.5H136.8z     M136.8,171.2v-4.5h-1.1v4.5H136.8z M136.8,180.2v-4.5h-1.1v4.5H136.8z M136.8,189.2v-4.5h-1.1v4.5H136.8z M136.8,198.2v-4.5h-1.1    v4.5H136.8z M136.8,207.2v-4.5h-1.1v4.5H136.8z M136.8,216.2v-4.5h-1.1v4.5H136.8z M136.8,225.2v-4.5h-1.1v4.5H136.8z     M136.8,234.2v-4.5h-1.1v4.5H136.8z M136.8,243.2v-4.5h-1.1v4.5H136.8z M136.8,252.2v-4.5h-1.1v4.5H136.8z M136.8,261.3v-4.5h-1.1    v4.5H136.8z M136.8,270.3v-4.5h-1.1v4.5H136.8z M136.8,279.3v-4.5h-1.1v4.5H136.8z M136.8,288.3v-4.5h-1.1v4.5H136.8z     M136.8,297.3v-4.5h-1.1v4.5H136.8z M136.8,306.3v-4.5h-1.1v4.5H136.8z M136.8,315.3v-4.5h-1.1v4.5H136.8z M136.8,324.3v-4.5h-1.1    v4.5H136.8z M136.8,333.3v-4.5h-1.1v4.5H136.8z M136.8,342.3v-4.5h-1.1v4.5H136.8z M136.8,351.3v-4.5h-1.1v4.5H136.8z     M136.8,360.3v-4.5h-1.1v4.5H136.8z"></path>	</g>	<path class="st0" d="M140.7,358.5c0,2.5-2,4.5-4.5,4.5c-2.5,0-4.5-2-4.5-4.5c0-2.5,2-4.5,4.5-4.5C138.7,354,140.7,356,140.7,358.5z   "></path></g><g class="st1 gear">	<path class="st0" d="M191.7,464.6L191.7,464.6c-7.6,7.6-11.8,17.8-11.8,28.6c0,10.8,4.2,21,11.8,28.6c7.6,7.6,17.8,11.8,28.6,11.8   c10.8,0,21-4.2,28.6-11.9c15.8-15.8,15.8-41.4,0-57.2C233.2,448.8,207.5,448.8,191.7,464.6z M248.1,465.4   c15.3,15.3,15.3,40.2,0,55.6c-7.4,7.4-17.3,11.5-27.8,11.5c-10.5,0-20.4-4.1-27.8-11.5c-7.4-7.4-11.5-17.3-11.5-27.8   c0-10.5,4.1-20.4,11.5-27.8C207.9,450.1,232.8,450.1,248.1,465.4z"></path>	<path class="st0" d="M202.4,493.2c0,9.9,8,17.9,17.9,17.9c9.9,0,17.9-8,17.9-17.9c0-9.9-8-17.9-17.9-17.9   C210.4,475.3,202.4,483.3,202.4,493.2z M203.5,493.2c0-9.3,7.5-16.8,16.8-16.8c9.3,0,16.8,7.5,16.8,16.8c0,9.2-7.5,16.8-16.8,16.8   C211.1,510,203.5,502.5,203.5,493.2z"></path>	<path class="st0" d="M215.2,434.1c0,0-2.1,4.9-2.3,5.4c-0.4,0.1-1.3,0.2-1.7,0.3c-0.4-0.4-4.6-5.2-4.6-5.2l-8.6-9.7l-1.2,12.9   c0,0-0.6,6.5-0.7,7.1c-0.3,0.1-0.5,0.3-0.8,0.4c-0.5-0.3-6-3.6-6-3.6l-11.1-6.6l2.8,12.6c0,0,1.4,6.4,1.5,7   c-0.2,0.2-0.4,0.4-0.6,0.6c-0.6-0.1-6.9-1.5-6.9-1.5l-12.6-2.8l6.6,11.1c0,0,3.3,5.6,3.6,6.1c-0.1,0.1-0.3,0.5-0.4,0.8   c-0.6,0.1-7,0.7-7,0.7l-12.9,1.2c0,0,14.6,12.9,15,13.3c0,0.3-0.1,0.6-0.1,0.9c-0.5,0.2-18.3,8-18.3,8l11.8,5.1c0,0,6,2.6,6.5,2.8   c0.1,0.3,0.1,0.7,0.2,0.9c-0.4,0.4-5.2,4.6-5.2,4.6l-9.7,8.6l12.9,1.2c0,0,6.5,0.6,7.1,0.7c0.1,0.1,0.3,0.5,0.4,0.8   c-0.3,0.5-10.1,17.2-10.1,17.2l12.6-2.8c0,0,6.4-1.4,7-1.6c0.2,0.2,0.4,0.4,0.6,0.6c-0.1,0.6-4.3,19.5-4.3,19.5l11.1-6.5   c0,0,5.6-3.3,6.1-3.6c0.3,0.1,0.5,0.3,0.8,0.4c0.1,0.6,1.9,19.8,1.9,19.8l8.6-9.7c0,0,4.3-4.9,4.7-5.3c0.3,0,0.8,0.1,0.9,0.1   c0.2,0.5,7.9,18.3,7.9,18.3l5.2-11.8c0,0,2.6-6,2.8-6.5c0.3,0,0.7-0.1,0.9-0.1c0.4,0.4,4.7,5.2,4.7,5.2l8.6,9.7l1.2-12.8   c0,0,0.6-6.5,0.7-7.1c0.3-0.1,0.5-0.3,0.8-0.4c0.5,0.3,6,3.5,6,3.5l11.1,6.6l-2.8-12.6c0,0-1.4-6.4-1.5-7c0.2-0.2,0.4-0.4,0.6-0.6   c0.6,0.1,6.9,1.5,6.9,1.5l12.6,2.8l-6.6-11.1c0,0-3.3-5.6-3.6-6.1c0-0.1,0.1-0.2,0.1-0.2s0.2-0.3,0.3-0.6c0.6-0.1,7-0.7,7-0.7   l12.9-1.2l-9.7-8.6c0,0-4.9-4.3-5.3-4.7c0-0.1,0.1-0.5,0.1-0.9c0.5-0.2,6.4-2.8,6.4-2.8l11.9-5.2l-11.9-5.2c0,0-6-2.6-6.5-2.8   c-0.1-0.3-0.1-0.6-0.1-0.9c0.4-0.4,5.3-4.7,5.3-4.7l9.7-8.5l-12.9-1.2c0,0-6.5-0.6-7.1-0.7c-0.1-0.2-0.4-0.7-0.5-0.9   c0.3-0.5,9.5-16.2,9.5-16.2l-12.6,2.8c0,0-5.2,1.1-5.8,1.3c-0.3-0.3-1-1-1.3-1.3c0.1-0.5,1.3-5.8,1.3-5.8l2.8-12.6   c0,0-15.7,9.3-16.2,9.6c-0.4-0.2-1.3-0.7-1.6-0.8c-0.1-0.6-0.6-5.8-0.6-5.8l-1.2-12.9l-8.6,9.7c0,0-3.5,4-3.9,4.4   c-0.4-0.1-1.4-0.2-1.8-0.3c-0.2-0.5-2.3-5.4-2.3-5.4l-5.2-11.8L215.2,434.1z M213.6,440.6l0.1-0.3l2.5-5.7c0,0,3.3-7.6,4.1-9.5   c0.8,1.9,4.1,9.5,4.1,9.5l2.6,6l3,0.5l0.2-0.2l4.1-4.6c0,0,5.5-6.2,6.8-7.7c0.2,2,1,10.3,1,10.3l0.6,6.5l2.7,1.4l0.3-0.2   c0,0,12.5-7.4,14.2-8.4c-0.4,2-2.2,10.1-2.2,10.1l-1.4,6.4l2.1,2.1l0.3-0.1l6.1-1.3c0,0,8.1-1.8,10.1-2.2c-1,1.8-8.5,14.5-8.5,14.5   l1,2l0.3,0l7.4,0.7c0,0,8.2,0.8,10.3,1c-1.5,1.4-7.7,6.8-7.7,6.8l-5.7,5.1l0.4,2.1l0.3,0.1l6.8,3c0,0,7.6,3.3,9.5,4.1   c-1.9,0.8-9.5,4.1-9.5,4.1l-7,3l-0.2,1.5l-0.1,0.6l5.8,5.1c0,0,6.2,5.5,7.7,6.9c-2,0.2-10.3,1-10.3,1l0,0l-7.6,0.7l-0.6,1.1   l-0.4,0.8l0.2,0.3l3.8,6.4c0,0,4.2,7.1,5.2,8.9c-2-0.4-10.1-2.2-10.1-2.2l-7.5-1.7l-1.5,1.5l0.1,0.3l1.6,7.3c0,0,1.8,8.1,2.2,10.1   c-1.8-1-8.9-5.3-8.9-5.3l-6.6-3.9l-1.9,1l0,0.3l-0.7,7.4c0,0-0.8,8.2-1,10.3c-1.4-1.5-6.8-7.7-6.8-7.7l-5.1-5.7l-1,0.2l-1.1,0.2   l-0.1,0.3l-3,6.8c0,0-3.3,7.6-4.1,9.5c-0.8-1.9-7.2-16.5-7.2-16.5l-0.8-0.1l-1.3-0.2l-0.2,0.2l-4.9,5.6c0,0-5.5,6.2-6.8,7.7   c-0.2-2-1.7-17.9-1.7-17.9l-1.9-1l-0.3,0.2l-6.4,3.8c0,0-7.1,4.2-8.9,5.2c0.4-2,3.9-17.6,3.9-17.6l-1.5-1.5l-0.3,0.1l-7.3,1.6   c0,0-8.1,1.8-10.1,2.2c1-1.8,9.1-15.5,9.1-15.5l-1-1.9l-0.3,0l-7.4-0.7c0,0-8.2-0.8-10.3-1c1.5-1.4,7.7-6.8,7.7-6.8l5.7-5.1   l-0.1-0.5l-0.3-1.5l-0.3-0.1l-6.8-3c0,0-7.6-3.3-9.5-4.1c1.9-0.8,16.5-7.2,16.5-7.2l0.3-2.1c0,0-12-10.6-13.5-12   c2-0.2,10.3-1,10.3-1l7.6-0.7l0.6-1.1l0.4-0.8l-0.2-0.3l-3.8-6.4c0,0-4.2-7.1-5.2-8.9c2,0.4,10.1,2.2,10.1,2.2l7.5,1.6l1.5-1.5   l-0.1-0.3l-1.6-7.3c0,0-1.8-8.1-2.2-10.1c1.8,1,8.9,5.3,8.9,5.3l6.6,3.9l1.9-1l0-0.3l0.7-7.4c0,0,0.8-8.2,1-10.3   c1.4,1.5,6.8,7.7,6.8,7.7l5.1,5.7L213.6,440.6z"></path>	<path class="st0" d="M190.4,463.2c-8,8-12.4,18.6-12.4,29.9c0,11.3,4.4,22,12.4,30c8,8,18.6,12.4,30,12.4   c11.3,0,21.9-4.4,29.9-12.4l0,0c16.5-16.5,16.5-43.4,0-59.9C233.8,446.7,206.9,446.7,190.4,463.2z M191.2,522.4   c-7.8-7.8-12.1-18.1-12.1-29.2c0-11,4.3-21.4,12.1-29.1c16.1-16.1,42.3-16.1,58.3,0c8,8,12,18.6,12,29.1c0,10.6-4,21.1-12.1,29.2   c-7.8,7.8-18.1,12.1-29.1,12.1C209.3,534.4,199,530.1,191.2,522.4z"></path></g><g>	<g class="st2">		<g>			<g>				<path class="st0" d="M20.1,312.3L20.1,312.3l0.9,0v0H20.1z M20.1,312.5H21v-0.1h-0.9V312.5z M20.1,312.8H21v-0.1h-0.9V312.8z       M20.1,313H21v-0.1h-0.9V313z M20.1,313.2H21v0L20.1,313.2L20.1,313.2z"></path>				<path class="st0" d="M19.9,318.8L19.9,318.8l1.4,0.1v-0.1H19.9z M19.9,319.2h1.4v-0.2h-1.4V319.2z M19.9,319.6h1.4v-0.2h-1.4      V319.6z M19.9,320h1.4v-0.2h-1.4V320z M19.9,320.2h1.4v-0.1L19.9,320.2L19.9,320.2z"></path>				<path class="st0" d="M19.6,325.4L19.6,325.4l1.9,0.1v-0.1H19.6z M19.6,326h1.9v-0.3h-1.9V326z M19.6,326.5h1.9v-0.3h-1.9V326.5z       M19.6,327h1.9v-0.3h-1.9V327z M19.6,327.3h1.9v-0.1L19.6,327.3L19.6,327.3z"></path>				<path class="st0" d="M19.4,331.9v0.1h2.4v-0.1H19.4z M19.4,332.7h2.4v-0.3h-2.4V332.7z M19.4,333.3h2.4V333h-2.4V333.3z       M19.4,333.9h2.4v-0.3h-2.4V333.9z M19.4,334.4h2.4v-0.1h-2.4V334.4z"></path>				<path class="st0" d="M19.1,338.5v0.1h3v-0.1H19.1z M19.1,339.4h3V339h-3V339.4z M19.1,340.1h3v-0.4h-3V340.1z M19.1,340.9h3      v-0.4h-3V340.9z M19.1,341.4h3v-0.1h-3V341.4z"></path>				<path class="st0" d="M18.8,345v0.2h3.5V345H18.8z M18.8,346.1h3.5v-0.5h-3.5V346.1z M18.8,347h3.5v-0.5h-3.5V347z M18.8,347.9      h3.5v-0.5h-3.5V347.9z M18.8,348.5h3.5v-0.2h-3.5V348.5z"></path>				<path class="st0" d="M18.6,351.6v0.2h4v-0.2H18.6z M18.6,352.8h4v-0.5h-4V352.8z M18.6,353.8h4v-0.5h-4V353.8z M18.6,354.9h4      v-0.5h-4V354.9z M18.6,355.6h4v-0.2h-4V355.6z"></path>				<path class="st0" d="M18.3,358.1v0.2h4.5v-0.2H18.3z M18.3,359.5h4.5v-0.6h-4.5V359.5z M18.3,360.7h4.5v-0.6h-4.5V360.7z       M18.3,361.8h4.5v-0.6h-4.5V361.8z M18.3,362.6h4.5v-0.2h-4.5V362.6z"></path>				<path class="st0" d="M18.1,364.7v0.2h5v-0.2H18.1z M18.1,366.2h5v-0.7h-5V366.2z M18.1,367.5h5v-0.7h-5V367.5z M18.1,368.8h5      v-0.7h-5V368.8z M18.1,369.7h5v-0.2h-5V369.7z"></path>				<path class="st0" d="M17.8,371.2v0.3h5.6v-0.3H17.8z M17.8,372.9h5.6v-0.7h-5.6V372.9z M17.8,374.4h5.6v-0.7h-5.6V374.4z       M17.8,375.8h5.6v-0.7h-5.6V375.8z M17.8,376.8h5.6v-0.3h-5.6V376.8z"></path>				<path class="st0" d="M29.9,376.8v-5.6h-0.3v5.6H29.9z M28.9,376.8v-5.6h-0.7v5.6H28.9z M27.4,376.8v-5.6h-0.7v5.6H27.4z       M26,376.8v-5.6h-0.7v5.6H26z M24.3,376.8h0.3v-5.6h-0.3V376.8z"></path>				<path class="st0" d="M29.6,369.7v-5h-0.2v5H29.6z M28.7,369.7v-5h-0.7v5H28.7z M27.4,369.7v-5h-0.7v5H27.4z M26.1,369.7v-5h-0.7      v5H26.1z M24.6,369.7h0.2v-5h-0.2V369.7z"></path>				<path class="st0" d="M29.3,362.6v-4.5h-0.2v4.5H29.3z M28.5,362.6v-4.5H28v4.5H28.5z M27.4,362.6v-4.5h-0.6v4.5H27.4z       M26.2,362.6v-4.5h-0.6v4.5H26.2z M24.8,362.6H25v-4.5h-0.2V362.6z"></path>				<path class="st0" d="M29.1,355.6v-4h-0.2v4H29.1z M28.4,355.6v-4h-0.5v4H28.4z M27.3,355.6v-4h-0.5v4H27.3z M26.3,355.6v-4h-0.5      v4H26.3z M25.1,355.6h0.2v-4h-0.2V355.6z"></path>				<path class="st0" d="M28.8,348.5V345h-0.2v3.5H28.8z M28.2,348.5V345h-0.5v3.5H28.2z M27.3,348.5V345h-0.5v3.5H27.3z       M26.4,348.5V345h-0.5v3.5H26.4z M25.3,348.5h0.2V345h-0.2V348.5z"></path>				<path class="st0" d="M28.6,341.4v-3h-0.1v3H28.6z M28,341.4v-3h-0.4v3H28z M27.3,341.4v-3h-0.4v3H27.3z M26.5,341.4v-3h-0.4v3      H26.5z M25.6,341.4h0.1v-3h-0.1V341.4z"></path>				<path class="st0" d="M28.3,334.4v-2.5h-0.1v2.5H28.3z M27.9,334.4v-2.5h-0.3v2.5H27.9z M27.2,334.4v-2.5h-0.3v2.5H27.2z       M26.6,334.4v-2.5h-0.3v2.5H26.6z M25.9,334.4H26v-2.5h-0.1V334.4z"></path>				<path class="st0" d="M28,327.3v-1.9H28L28,327.3L28,327.3z M27.7,327.3v-1.9h-0.3v1.9H27.7z M27.2,327.3v-1.9H27v1.9H27.2z       M26.7,327.3v-1.9h-0.3v1.9H26.7z M26.1,327.3L26.1,327.3l0.1-1.9h-0.1V327.3z"></path>				<path class="st0" d="M27.8,320.2v-1.4h-0.1L27.8,320.2L27.8,320.2z M27.5,320.2v-1.4h-0.2v1.4H27.5z M27.2,320.2v-1.4H27v1.4      H27.2z M26.8,320.2v-1.4h-0.2v1.4H26.8z M26.4,320.2L26.4,320.2l0.1-1.4h-0.1V320.2z"></path>				<path class="st0" d="M27.5,313.2v-0.9h0L27.5,313.2L27.5,313.2z M27.4,313.2v-0.9h-0.1v0.9H27.4z M27.1,313.2v-0.9H27v0.9H27.1z       M26.9,313.2v-0.9h-0.1v0.9H26.9z M26.6,313.2L26.6,313.2l0-0.9h0V313.2z"></path>			</g>			<g>				<path class="st0" d="M33.3,312.3L33.3,312.3l0.9,0v0H33.3z M33.3,312.5h0.9v-0.1h-0.9V312.5z M33.3,312.8h0.9v-0.1h-0.9V312.8z       M33.3,313h0.9v-0.1h-0.9V313z M33.3,313.2h0.9v0L33.3,313.2L33.3,313.2z"></path>				<path class="st0" d="M33,318.8L33,318.8l1.4,0.1v-0.1H33z M33,319.2h1.4v-0.2H33V319.2z M33,319.6h1.4v-0.2H33V319.6z M33,320      h1.4v-0.2H33V320z M33,320.2h1.4v-0.1L33,320.2L33,320.2z"></path>				<path class="st0" d="M32.7,325.4L32.7,325.4l1.9,0.1v-0.1H32.7z M32.7,326h1.9v-0.3h-1.9V326z M32.7,326.5h1.9v-0.3h-1.9V326.5z       M32.7,327h1.9v-0.3h-1.9V327z M32.7,327.3h1.9v-0.1L32.7,327.3L32.7,327.3z"></path>				<path class="st0" d="M32.5,331.9v0.1h2.4v-0.1H32.5z M32.5,332.7h2.4v-0.3h-2.4V332.7z M32.5,333.3h2.4V333h-2.4V333.3z       M32.5,333.9h2.4v-0.3h-2.4V333.9z M32.5,334.4h2.4v-0.1h-2.4V334.4z"></path>				<path class="st0" d="M32.2,338.5v0.1h3v-0.1H32.2z M32.2,339.4h3V339h-3V339.4z M32.2,340.1h3v-0.4h-3V340.1z M32.2,340.9h3      v-0.4h-3V340.9z M32.2,341.4h3v-0.1h-3V341.4z"></path>				<path class="st0" d="M32,345v0.2h3.5V345H32z M32,346.1h3.5v-0.5H32V346.1z M32,347h3.5v-0.5H32V347z M32,347.9h3.5v-0.5H32      V347.9z M32,348.5h3.5v-0.2H32V348.5z"></path>				<path class="st0" d="M31.7,351.6v0.2h4v-0.2H31.7z M31.7,352.8h4v-0.5h-4V352.8z M31.7,353.8h4v-0.5h-4V353.8z M31.7,354.9h4      v-0.5h-4V354.9z M31.7,355.6h4v-0.2h-4V355.6z"></path>				<path class="st0" d="M31.4,358.1v0.2H36v-0.2H31.4z M31.4,359.5H36v-0.6h-4.5V359.5z M31.4,360.7H36v-0.6h-4.5V360.7z       M31.4,361.8H36v-0.6h-4.5V361.8z M31.4,362.6H36v-0.2h-4.5V362.6z"></path>				<path class="st0" d="M31.2,364.7v0.2h5v-0.2H31.2z M31.2,366.2h5v-0.7h-5V366.2z M31.2,367.5h5v-0.7h-5V367.5z M31.2,368.8h5      v-0.7h-5V368.8z M31.2,369.7h5v-0.2h-5V369.7z"></path>				<path class="st0" d="M30.9,371.2v0.3h5.6v-0.3H30.9z M30.9,372.9h5.6v-0.7h-5.6V372.9z M30.9,374.4h5.6v-0.7h-5.6V374.4z       M30.9,375.8h5.6v-0.7h-5.6V375.8z M30.9,376.8h5.6v-0.3h-5.6V376.8z"></path>				<path class="st0" d="M43,376.8v-5.6h-0.3v5.6H43z M42,376.8v-5.6h-0.7v5.6H42z M40.6,376.8v-5.6h-0.7v5.6H40.6z M39.1,376.8      v-5.6h-0.7v5.6H39.1z M37.4,376.8h0.3v-5.6h-0.3V376.8z"></path>				<path class="st0" d="M42.7,369.7v-5h-0.2v5H42.7z M41.8,369.7v-5h-0.7v5H41.8z M40.5,369.7v-5h-0.7v5H40.5z M39.2,369.7v-5h-0.7      v5H39.2z M37.7,369.7h0.2v-5h-0.2V369.7z"></path>				<path class="st0" d="M42.5,362.6v-4.5h-0.2v4.5H42.5z M41.7,362.6v-4.5h-0.6v4.5H41.7z M40.5,362.6v-4.5h-0.6v4.5H40.5z       M39.3,362.6v-4.5h-0.6v4.5H39.3z M37.9,362.6h0.2v-4.5h-0.2V362.6z"></path>				<path class="st0" d="M42.2,355.6v-4H42v4H42.2z M41.5,355.6v-4H41v4H41.5z M40.5,355.6v-4h-0.5v4H40.5z M39.4,355.6v-4h-0.5v4      H39.4z M38.2,355.6h0.2v-4h-0.2V355.6z"></path>				<path class="st0" d="M41.9,348.5V345h-0.2v3.5H41.9z M41.3,348.5V345h-0.5v3.5H41.3z M40.4,348.5V345H40v3.5H40.4z M39.5,348.5      V345h-0.5v3.5H39.5z M38.5,348.5h0.2V345h-0.2V348.5z"></path>				<path class="st0" d="M41.7,341.4v-3h-0.1v3H41.7z M41.2,341.4v-3h-0.4v3H41.2z M40.4,341.4v-3H40v3H40.4z M39.6,341.4v-3h-0.4v3      H39.6z M38.7,341.4h0.1v-3h-0.1V341.4z"></path>				<path class="st0" d="M41.4,334.4v-2.5h-0.1v2.5H41.4z M41,334.4v-2.5h-0.3v2.5H41z M40.4,334.4v-2.5H40v2.5H40.4z M39.7,334.4      v-2.5h-0.3v2.5H39.7z M39,334.4h0.1v-2.5H39V334.4z"></path>				<path class="st0" d="M41.2,327.3v-1.9h-0.1L41.2,327.3L41.2,327.3z M40.8,327.3v-1.9h-0.3v1.9H40.8z M40.3,327.3v-1.9h-0.3v1.9      H40.3z M39.8,327.3v-1.9h-0.3v1.9H39.8z M39.2,327.3L39.2,327.3l0.1-1.9h-0.1V327.3z"></path>				<path class="st0" d="M40.9,320.2v-1.4h-0.1L40.9,320.2L40.9,320.2z M40.7,320.2v-1.4h-0.2v1.4H40.7z M40.3,320.2v-1.4h-0.2v1.4      H40.3z M39.9,320.2v-1.4h-0.2v1.4H39.9z M39.5,320.2L39.5,320.2l0.1-1.4h-0.1V320.2z"></path>				<path class="st0" d="M40.7,313.2v-0.9h0L40.7,313.2L40.7,313.2z M40.5,313.2v-0.9h-0.1v0.9H40.5z M40.3,313.2v-0.9h-0.1v0.9      H40.3z M40,313.2v-0.9h-0.1v0.9H40z M39.8,313.2L39.8,313.2l0-0.9h0V313.2z"></path>			</g>			<g>				<path class="st0" d="M46.4,312.3L46.4,312.3l0.9,0v0H46.4z M46.4,312.5h0.9v-0.1h-0.9V312.5z M46.4,312.8h0.9v-0.1h-0.9V312.8z       M46.4,313h0.9v-0.1h-0.9V313z M46.4,313.2h0.9v0L46.4,313.2L46.4,313.2z"></path>				<path class="st0" d="M46.1,318.8L46.1,318.8l1.4,0.1v-0.1H46.1z M46.1,319.2h1.4v-0.2h-1.4V319.2z M46.1,319.6h1.4v-0.2h-1.4      V319.6z M46.1,320h1.4v-0.2h-1.4V320z M46.1,320.2h1.4v-0.1L46.1,320.2L46.1,320.2z"></path>				<path class="st0" d="M45.9,325.4L45.9,325.4l1.9,0.1v-0.1H45.9z M45.9,326h1.9v-0.3h-1.9V326z M45.9,326.5h1.9v-0.3h-1.9V326.5z       M45.9,327h1.9v-0.3h-1.9V327z M45.9,327.3h1.9v-0.1L45.9,327.3L45.9,327.3z"></path>				<path class="st0" d="M45.6,331.9v0.1h2.4v-0.1H45.6z M45.6,332.7h2.4v-0.3h-2.4V332.7z M45.6,333.3h2.4V333h-2.4V333.3z       M45.6,333.9h2.4v-0.3h-2.4V333.9z M45.6,334.4h2.4v-0.1h-2.4V334.4z"></path>				<path class="st0" d="M45.3,338.5v0.1h3v-0.1H45.3z M45.3,339.4h3V339h-3V339.4z M45.3,340.1h3v-0.4h-3V340.1z M45.3,340.9h3      v-0.4h-3V340.9z M45.3,341.4h3v-0.1h-3V341.4z"></path>				<path class="st0" d="M45.1,345v0.2h3.5V345H45.1z M45.1,346.1h3.5v-0.5h-3.5V346.1z M45.1,347h3.5v-0.5h-3.5V347z M45.1,347.9      h3.5v-0.5h-3.5V347.9z M45.1,348.5h3.5v-0.2h-3.5V348.5z"></path>				<path class="st0" d="M44.8,351.6v0.2h4v-0.2H44.8z M44.8,352.8h4v-0.5h-4V352.8z M44.8,353.8h4v-0.5h-4V353.8z M44.8,354.9h4      v-0.5h-4V354.9z M44.8,355.6h4v-0.2h-4V355.6z"></path>				<path class="st0" d="M44.6,358.1v0.2h4.5v-0.2H44.6z M44.6,359.5h4.5v-0.6h-4.5V359.5z M44.6,360.7h4.5v-0.6h-4.5V360.7z       M44.6,361.8h4.5v-0.6h-4.5V361.8z M44.6,362.6h4.5v-0.2h-4.5V362.6z"></path>				<path class="st0" d="M44.3,364.7v0.2h5v-0.2H44.3z M44.3,366.2h5v-0.7h-5V366.2z M44.3,367.5h5v-0.7h-5V367.5z M44.3,368.8h5      v-0.7h-5V368.8z M44.3,369.7h5v-0.2h-5V369.7z"></path>				<path class="st0" d="M44.1,371.2v0.3h5.6v-0.3H44.1z M44.1,372.9h5.6v-0.7h-5.6V372.9z M44.1,374.4h5.6v-0.7h-5.6V374.4z       M44.1,375.8h5.6v-0.7h-5.6V375.8z M44.1,376.8h5.6v-0.3h-5.6V376.8z"></path>				<path class="st0" d="M56.1,376.8v-5.6h-0.3v5.6H56.1z M55.1,376.8v-5.6h-0.7v5.6H55.1z M53.7,376.8v-5.6H53v5.6H53.7z       M52.2,376.8v-5.6h-0.7v5.6H52.2z M50.6,376.8h0.3v-5.6h-0.3V376.8z"></path>				<path class="st0" d="M55.9,369.7v-5h-0.2v5H55.9z M55,369.7v-5h-0.7v5H55z M53.7,369.7v-5H53v5H53.7z M52.3,369.7v-5h-0.7v5      H52.3z M50.8,369.7H51v-5h-0.2V369.7z"></path>				<path class="st0" d="M55.6,362.6v-4.5h-0.2v4.5H55.6z M54.8,362.6v-4.5h-0.6v4.5H54.8z M53.6,362.6v-4.5H53v4.5H53.6z       M52.4,362.6v-4.5h-0.6v4.5H52.4z M51.1,362.6h0.2v-4.5h-0.2V362.6z"></path>				<path class="st0" d="M55.3,355.6v-4h-0.2v4H55.3z M54.6,355.6v-4h-0.5v4H54.6z M53.6,355.6v-4h-0.5v4H53.6z M52.5,355.6v-4H52v4      H52.5z M51.3,355.6h0.2v-4h-0.2V355.6z"></path>				<path class="st0" d="M55.1,348.5V345h-0.2v3.5H55.1z M54.5,348.5V345H54v3.5H54.5z M53.6,348.5V345h-0.5v3.5H53.6z M52.7,348.5      V345h-0.5v3.5H52.7z M51.6,348.5h0.2V345h-0.2V348.5z"></path>				<path class="st0" d="M54.8,341.4v-3h-0.1v3H54.8z M54.3,341.4v-3h-0.4v3H54.3z M53.5,341.4v-3h-0.4v3H53.5z M52.8,341.4v-3h-0.4      v3H52.8z M51.8,341.4H52v-3h-0.1V341.4z"></path>				<path class="st0" d="M54.6,334.4v-2.5h-0.1v2.5H54.6z M54.1,334.4v-2.5h-0.3v2.5H54.1z M53.5,334.4v-2.5h-0.3v2.5H53.5z       M52.9,334.4v-2.5h-0.3v2.5H52.9z M52.1,334.4h0.1v-2.5h-0.1V334.4z"></path>				<path class="st0" d="M54.3,327.3v-1.9h-0.1L54.3,327.3L54.3,327.3z M54,327.3v-1.9h-0.3v1.9H54z M53.5,327.3v-1.9h-0.3v1.9H53.5      z M53,327.3v-1.9h-0.3v1.9H53z M52.4,327.3L52.4,327.3l0.1-1.9h-0.1V327.3z"></path>				<path class="st0" d="M54,320.2v-1.4H54L54,320.2L54,320.2z M53.8,320.2v-1.4h-0.2v1.4H53.8z M53.4,320.2v-1.4h-0.2v1.4H53.4z       M53.1,320.2v-1.4h-0.2v1.4H53.1z M52.6,320.2L52.6,320.2l0.1-1.4h-0.1V320.2z"></path>				<path class="st0" d="M53.8,313.2v-0.9h0L53.8,313.2L53.8,313.2z M53.6,313.2v-0.9h-0.1v0.9H53.6z M53.4,313.2v-0.9h-0.1v0.9      H53.4z M53.2,313.2v-0.9H53v0.9H53.2z M52.9,313.2L52.9,313.2l0-0.9h0V313.2z"></path>			</g>			<g>				<path class="st0" d="M59.5,312.3L59.5,312.3l0.9,0v0H59.5z M59.5,312.5h0.9v-0.1h-0.9V312.5z M59.5,312.8h0.9v-0.1h-0.9V312.8z       M59.5,313h0.9v-0.1h-0.9V313z M59.5,313.2h0.9v0L59.5,313.2L59.5,313.2z"></path>				<path class="st0" d="M59.2,318.8L59.2,318.8l1.4,0.1v-0.1H59.2z M59.2,319.2h1.4v-0.2h-1.4V319.2z M59.2,319.6h1.4v-0.2h-1.4      V319.6z M59.2,320h1.4v-0.2h-1.4V320z M59.2,320.2h1.4v-0.1L59.2,320.2L59.2,320.2z"></path>				<path class="st0" d="M59,325.4L59,325.4l1.9,0.1v-0.1H59z M59,326h1.9v-0.3H59V326z M59,326.5h1.9v-0.3H59V326.5z M59,327h1.9      v-0.3H59V327z M59,327.3h1.9v-0.1L59,327.3L59,327.3z"></path>				<path class="st0" d="M58.7,331.9v0.1h2.4v-0.1H58.7z M58.7,332.7h2.4v-0.3h-2.4V332.7z M58.7,333.3h2.4V333h-2.4V333.3z       M58.7,333.9h2.4v-0.3h-2.4V333.9z M58.7,334.4h2.4v-0.1h-2.4V334.4z"></path>				<path class="st0" d="M58.5,338.5v0.1h3v-0.1H58.5z M58.5,339.4h3V339h-3V339.4z M58.5,340.1h3v-0.4h-3V340.1z M58.5,340.9h3      v-0.4h-3V340.9z M58.5,341.4h3v-0.1h-3V341.4z"></path>				<path class="st0" d="M58.2,345v0.2h3.5V345H58.2z M58.2,346.1h3.5v-0.5h-3.5V346.1z M58.2,347h3.5v-0.5h-3.5V347z M58.2,347.9      h3.5v-0.5h-3.5V347.9z M58.2,348.5h3.5v-0.2h-3.5V348.5z"></path>				<path class="st0" d="M58,351.6v0.2h4v-0.2H58z M58,352.8h4v-0.5h-4V352.8z M58,353.8h4v-0.5h-4V353.8z M58,354.9h4v-0.5h-4      V354.9z M58,355.6h4v-0.2h-4V355.6z"></path>				<path class="st0" d="M57.7,358.1v0.2h4.5v-0.2H57.7z M57.7,359.5h4.5v-0.6h-4.5V359.5z M57.7,360.7h4.5v-0.6h-4.5V360.7z       M57.7,361.8h4.5v-0.6h-4.5V361.8z M57.7,362.6h4.5v-0.2h-4.5V362.6z"></path>				<path class="st0" d="M57.4,364.7v0.2h5v-0.2H57.4z M57.4,366.2h5v-0.7h-5V366.2z M57.4,367.5h5v-0.7h-5V367.5z M57.4,368.8h5      v-0.7h-5V368.8z M57.4,369.7h5v-0.2h-5V369.7z"></path>				<path class="st0" d="M57.2,371.2v0.3h5.6v-0.3H57.2z M57.2,372.9h5.6v-0.7h-5.6V372.9z M57.2,374.4h5.6v-0.7h-5.6V374.4z       M57.2,375.8h5.6v-0.7h-5.6V375.8z M57.2,376.8h5.6v-0.3h-5.6V376.8z"></path>				<path class="st0" d="M69.2,376.8v-5.6H69v5.6H69.2z M68.3,376.8v-5.6h-0.7v5.6H68.3z M66.8,376.8v-5.6h-0.7v5.6H66.8z       M65.4,376.8v-5.6h-0.7v5.6H65.4z M63.7,376.8h0.3v-5.6h-0.3V376.8z"></path>				<path class="st0" d="M69,369.7v-5h-0.2v5H69z M68.1,369.7v-5h-0.7v5H68.1z M66.8,369.7v-5h-0.7v5H66.8z M65.5,369.7v-5h-0.7v5      H65.5z M63.9,369.7h0.2v-5h-0.2V369.7z"></path>				<path class="st0" d="M68.7,362.6v-4.5h-0.2v4.5H68.7z M67.9,362.6v-4.5h-0.6v4.5H67.9z M66.8,362.6v-4.5h-0.6v4.5H66.8z       M65.6,362.6v-4.5H65v4.5H65.6z M64.2,362.6h0.2v-4.5h-0.2V362.6z"></path>				<path class="st0" d="M68.5,355.6v-4h-0.2v4H68.5z M67.8,355.6v-4h-0.5v4H67.8z M66.7,355.6v-4h-0.5v4H66.7z M65.7,355.6v-4h-0.5      v4H65.7z M64.5,355.6h0.2v-4h-0.2V355.6z"></path>				<path class="st0" d="M68.2,348.5V345H68v3.5H68.2z M67.6,348.5V345h-0.5v3.5H67.6z M66.7,348.5V345h-0.5v3.5H66.7z M65.8,348.5      V345h-0.5v3.5H65.8z M64.7,348.5h0.2V345h-0.2V348.5z"></path>				<path class="st0" d="M67.9,341.4v-3h-0.1v3H67.9z M67.4,341.4v-3H67v3H67.4z M66.6,341.4v-3h-0.4v3H66.6z M65.9,341.4v-3h-0.4v3      H65.9z M65,341.4h0.1v-3H65V341.4z"></path>				<path class="st0" d="M67.7,334.4v-2.5h-0.1v2.5H67.7z M67.3,334.4v-2.5h-0.3v2.5H67.3z M66.6,334.4v-2.5h-0.3v2.5H66.6z       M66,334.4v-2.5h-0.3v2.5H66z M65.2,334.4h0.1v-2.5h-0.1V334.4z"></path>				<path class="st0" d="M67.4,327.3v-1.9h-0.1L67.4,327.3L67.4,327.3z M67.1,327.3v-1.9h-0.3v1.9H67.1z M66.6,327.3v-1.9h-0.3v1.9      H66.6z M66.1,327.3v-1.9h-0.3v1.9H66.1z M65.5,327.3L65.5,327.3l0.1-1.9h-0.1V327.3z"></path>				<path class="st0" d="M67.2,320.2v-1.4h-0.1L67.2,320.2L67.2,320.2z M66.9,320.2v-1.4h-0.2v1.4H66.9z M66.5,320.2v-1.4h-0.2v1.4      H66.5z M66.2,320.2v-1.4H66v1.4H66.2z M65.7,320.2L65.7,320.2l0.1-1.4h-0.1V320.2z"></path>				<path class="st0" d="M66.9,313.2v-0.9h0L66.9,313.2L66.9,313.2z M66.7,313.2v-0.9h-0.1v0.9H66.7z M66.5,313.2v-0.9h-0.1v0.9      H66.5z M66.3,313.2v-0.9h-0.1v0.9H66.3z M66,313.2L66,313.2l0-0.9h0V313.2z"></path>			</g>			<g>				<path class="st0" d="M72.9,312.3L72.9,312.3l0.9,0v0H72.9z M72.9,312.5h0.9v-0.1h-0.9V312.5z M72.9,312.8h0.9v-0.1h-0.9V312.8z       M72.9,313h0.9v-0.1h-0.9V313z M72.9,313.2h0.9v0L72.9,313.2L72.9,313.2z"></path>				<path class="st0" d="M72.6,318.8L72.6,318.8l1.4,0.1v-0.1H72.6z M72.6,319.2H74v-0.2h-1.4V319.2z M72.6,319.6H74v-0.2h-1.4      V319.6z M72.6,320H74v-0.2h-1.4V320z M72.6,320.2H74v-0.1L72.6,320.2L72.6,320.2z"></path>				<path class="st0" d="M72.4,325.4L72.4,325.4l1.9,0.1v-0.1H72.4z M72.4,326h1.9v-0.3h-1.9V326z M72.4,326.5h1.9v-0.3h-1.9V326.5z       M72.4,327h1.9v-0.3h-1.9V327z M72.4,327.3h1.9v-0.1L72.4,327.3L72.4,327.3z"></path>				<path class="st0" d="M72.1,331.9v0.1h2.4v-0.1H72.1z M72.1,332.7h2.4v-0.3h-2.4V332.7z M72.1,333.3h2.4V333h-2.4V333.3z       M72.1,333.9h2.4v-0.3h-2.4V333.9z M72.1,334.4h2.4v-0.1h-2.4V334.4z"></path>				<path class="st0" d="M71.8,338.5v0.1h3v-0.1H71.8z M71.8,339.4h3V339h-3V339.4z M71.8,340.1h3v-0.4h-3V340.1z M71.8,340.9h3      v-0.4h-3V340.9z M71.8,341.4h3v-0.1h-3V341.4z"></path>				<path class="st0" d="M71.6,345v0.2h3.5V345H71.6z M71.6,346.1h3.5v-0.5h-3.5V346.1z M71.6,347h3.5v-0.5h-3.5V347z M71.6,347.9      h3.5v-0.5h-3.5V347.9z M71.6,348.5h3.5v-0.2h-3.5V348.5z"></path>				<path class="st0" d="M71.3,351.6v0.2h4v-0.2H71.3z M71.3,352.8h4v-0.5h-4V352.8z M71.3,353.8h4v-0.5h-4V353.8z M71.3,354.9h4      v-0.5h-4V354.9z M71.3,355.6h4v-0.2h-4V355.6z"></path>				<path class="st0" d="M71.1,358.1v0.2h4.5v-0.2H71.1z M71.1,359.5h4.5v-0.6h-4.5V359.5z M71.1,360.7h4.5v-0.6h-4.5V360.7z       M71.1,361.8h4.5v-0.6h-4.5V361.8z M71.1,362.6h4.5v-0.2h-4.5V362.6z"></path>				<path class="st0" d="M70.8,364.7v0.2h5v-0.2H70.8z M70.8,366.2h5v-0.7h-5V366.2z M70.8,367.5h5v-0.7h-5V367.5z M70.8,368.8h5      v-0.7h-5V368.8z M70.8,369.7h5v-0.2h-5V369.7z"></path>				<path class="st0" d="M70.5,371.2v0.3h5.6v-0.3H70.5z M70.5,372.9h5.6v-0.7h-5.6V372.9z M70.5,374.4h5.6v-0.7h-5.6V374.4z       M70.5,375.8h5.6v-0.7h-5.6V375.8z M70.5,376.8h5.6v-0.3h-5.6V376.8z"></path>				<path class="st0" d="M82.6,376.8v-5.6h-0.3v5.6H82.6z M81.6,376.8v-5.6h-0.7v5.6H81.6z M80.2,376.8v-5.6h-0.7v5.6H80.2z       M78.7,376.8v-5.6H78v5.6H78.7z M77,376.8h0.3v-5.6H77V376.8z"></path>				<path class="st0" d="M82.3,369.7v-5h-0.2v5H82.3z M81.5,369.7v-5h-0.7v5H81.5z M80.1,369.7v-5h-0.7v5H80.1z M78.8,369.7v-5h-0.7      v5H78.8z M77.3,369.7h0.2v-5h-0.2V369.7z"></path>				<path class="st0" d="M82.1,362.6v-4.5h-0.2v4.5H82.1z M81.3,362.6v-4.5h-0.6v4.5H81.3z M80.1,362.6v-4.5h-0.6v4.5H80.1z       M78.9,362.6v-4.5h-0.6v4.5H78.9z M77.6,362.6h0.2v-4.5h-0.2V362.6z"></path>				<path class="st0" d="M81.8,355.6v-4h-0.2v4H81.8z M81.1,355.6v-4h-0.5v4H81.1z M80.1,355.6v-4h-0.5v4H80.1z M79,355.6v-4h-0.5v4      H79z M77.8,355.6H78v-4h-0.2V355.6z"></path>				<path class="st0" d="M81.6,348.5V345h-0.2v3.5H81.6z M81,348.5V345h-0.5v3.5H81z M80,348.5V345h-0.5v3.5H80z M79.1,348.5V345      h-0.5v3.5H79.1z M78.1,348.5h0.2V345h-0.2V348.5z"></path>				<path class="st0" d="M81.3,341.4v-3h-0.1v3H81.3z M80.8,341.4v-3h-0.4v3H80.8z M80,341.4v-3h-0.4v3H80z M79.2,341.4v-3h-0.4v3      H79.2z M78.3,341.4h0.1v-3h-0.1V341.4z"></path>				<path class="st0" d="M81,334.4v-2.5h-0.1v2.5H81z M80.6,334.4v-2.5h-0.3v2.5H80.6z M80,334.4v-2.5h-0.3v2.5H80z M79.3,334.4      v-2.5H79v2.5H79.3z M78.6,334.4h0.1v-2.5h-0.1V334.4z"></path>				<path class="st0" d="M80.8,327.3v-1.9h-0.1L80.8,327.3L80.8,327.3z M80.4,327.3v-1.9h-0.3v1.9H80.4z M79.9,327.3v-1.9h-0.3v1.9      H79.9z M79.4,327.3v-1.9h-0.3v1.9H79.4z M78.9,327.3L78.9,327.3l0.1-1.9h-0.1V327.3z"></path>				<path class="st0" d="M80.5,320.2v-1.4h-0.1L80.5,320.2L80.5,320.2z M80.3,320.2v-1.4h-0.2v1.4H80.3z M79.9,320.2v-1.4h-0.2v1.4      H79.9z M79.5,320.2v-1.4h-0.2v1.4H79.5z M79.1,320.2L79.1,320.2l0.1-1.4h-0.1V320.2z"></path>				<path class="st0" d="M80.3,313.2v-0.9h0L80.3,313.2L80.3,313.2z M80.1,313.2v-0.9H80v0.9H80.1z M79.9,313.2v-0.9h-0.1v0.9H79.9z       M79.6,313.2v-0.9h-0.1v0.9H79.6z M79.4,313.2L79.4,313.2l0-0.9h0V313.2z"></path>			</g>		</g>		<g>			<g>				<path class="st0" d="M86.8,312.3L86.8,312.3l0.9,0v0H86.8z M86.8,312.5h0.9v-0.1h-0.9V312.5z M86.8,312.8h0.9v-0.1h-0.9V312.8z       M86.8,313h0.9v-0.1h-0.9V313z M86.8,313.2h0.9v0L86.8,313.2L86.8,313.2z"></path>				<path class="st0" d="M86.5,318.8L86.5,318.8l1.4,0.1v-0.1H86.5z M86.5,319.2h1.4v-0.2h-1.4V319.2z M86.5,319.6h1.4v-0.2h-1.4      V319.6z M86.5,320h1.4v-0.2h-1.4V320z M86.5,320.2h1.4v-0.1L86.5,320.2L86.5,320.2z"></path>				<path class="st0" d="M86.3,325.4L86.3,325.4l1.9,0.1v-0.1H86.3z M86.3,326h1.9v-0.3h-1.9V326z M86.3,326.5h1.9v-0.3h-1.9V326.5z       M86.3,327h1.9v-0.3h-1.9V327z M86.3,327.3h1.9v-0.1L86.3,327.3L86.3,327.3z"></path>				<path class="st0" d="M86,331.9v0.1h2.4v-0.1H86z M86,332.7h2.4v-0.3H86V332.7z M86,333.3h2.4V333H86V333.3z M86,333.9h2.4v-0.3      H86V333.9z M86,334.4h2.4v-0.1H86V334.4z"></path>				<path class="st0" d="M85.7,338.5v0.1h3v-0.1H85.7z M85.7,339.4h3V339h-3V339.4z M85.7,340.1h3v-0.4h-3V340.1z M85.7,340.9h3      v-0.4h-3V340.9z M85.7,341.4h3v-0.1h-3V341.4z"></path>				<path class="st0" d="M85.5,345v0.2H89V345H85.5z M85.5,346.1H89v-0.5h-3.5V346.1z M85.5,347H89v-0.5h-3.5V347z M85.5,347.9H89      v-0.5h-3.5V347.9z M85.5,348.5H89v-0.2h-3.5V348.5z"></path>				<path class="st0" d="M85.2,351.6v0.2h4v-0.2H85.2z M85.2,352.8h4v-0.5h-4V352.8z M85.2,353.8h4v-0.5h-4V353.8z M85.2,354.9h4      v-0.5h-4V354.9z M85.2,355.6h4v-0.2h-4V355.6z"></path>				<path class="st0" d="M85,358.1v0.2h4.5v-0.2H85z M85,359.5h4.5v-0.6H85V359.5z M85,360.7h4.5v-0.6H85V360.7z M85,361.8h4.5v-0.6      H85V361.8z M85,362.6h4.5v-0.2H85V362.6z"></path>				<path class="st0" d="M84.7,364.7v0.2h5v-0.2H84.7z M84.7,366.2h5v-0.7h-5V366.2z M84.7,367.5h5v-0.7h-5V367.5z M84.7,368.8h5      v-0.7h-5V368.8z M84.7,369.7h5v-0.2h-5V369.7z"></path>				<path class="st0" d="M84.5,371.2v0.3H90v-0.3H84.5z M84.5,372.9H90v-0.7h-5.6V372.9z M84.5,374.4H90v-0.7h-5.6V374.4z       M84.5,375.8H90v-0.7h-5.6V375.8z M84.5,376.8H90v-0.3h-5.6V376.8z"></path>				<path class="st0" d="M96.5,376.8v-5.6h-0.3v5.6H96.5z M95.5,376.8v-5.6h-0.7v5.6H95.5z M94.1,376.8v-5.6h-0.7v5.6H94.1z       M92.6,376.8v-5.6h-0.7v5.6H92.6z M91,376.8h0.3v-5.6H91V376.8z"></path>				<path class="st0" d="M96.3,369.7v-5H96v5H96.3z M95.4,369.7v-5h-0.7v5H95.4z M94.1,369.7v-5h-0.7v5H94.1z M92.7,369.7v-5h-0.7v5      H92.7z M91.2,369.7h0.2v-5h-0.2V369.7z"></path>				<path class="st0" d="M96,362.6v-4.5h-0.2v4.5H96z M95.2,362.6v-4.5h-0.6v4.5H95.2z M94,362.6v-4.5h-0.6v4.5H94z M92.8,362.6      v-4.5h-0.6v4.5H92.8z M91.5,362.6h0.2v-4.5h-0.2V362.6z"></path>				<path class="st0" d="M95.7,355.6v-4h-0.2v4H95.7z M95,355.6v-4h-0.5v4H95z M94,355.6v-4h-0.5v4H94z M93,355.6v-4h-0.5v4H93z       M91.7,355.6h0.2v-4h-0.2V355.6z"></path>				<path class="st0" d="M95.5,348.5V345h-0.2v3.5H95.5z M94.9,348.5V345h-0.5v3.5H94.9z M94,348.5V345h-0.5v3.5H94z M93.1,348.5      V345h-0.5v3.5H93.1z M92,348.5h0.2V345H92V348.5z"></path>				<path class="st0" d="M95.2,341.4v-3h-0.1v3H95.2z M94.7,341.4v-3h-0.4v3H94.7z M93.9,341.4v-3h-0.4v3H93.9z M93.2,341.4v-3h-0.4      v3H93.2z M92.2,341.4h0.1v-3h-0.1V341.4z"></path>				<path class="st0" d="M95,334.4v-2.5h-0.1v2.5H95z M94.5,334.4v-2.5h-0.3v2.5H94.5z M93.9,334.4v-2.5h-0.3v2.5H93.9z M93.3,334.4      v-2.5h-0.3v2.5H93.3z M92.5,334.4h0.1v-2.5h-0.1V334.4z"></path>				<path class="st0" d="M94.7,327.3v-1.9h-0.1L94.7,327.3L94.7,327.3z M94.4,327.3v-1.9h-0.3v1.9H94.4z M93.9,327.3v-1.9h-0.3v1.9      H93.9z M93.4,327.3v-1.9h-0.3v1.9H93.4z M92.8,327.3L92.8,327.3l0.1-1.9h-0.1V327.3z"></path>				<path class="st0" d="M94.4,320.2v-1.4h-0.1L94.4,320.2L94.4,320.2z M94.2,320.2v-1.4H94v1.4H94.2z M93.8,320.2v-1.4h-0.2v1.4      H93.8z M93.5,320.2v-1.4h-0.2v1.4H93.5z M93,320.2L93,320.2l0.1-1.4H93V320.2z"></path>				<path class="st0" d="M94.2,313.2v-0.9h0L94.2,313.2L94.2,313.2z M94,313.2v-0.9h-0.1v0.9H94z M93.8,313.2v-0.9h-0.1v0.9H93.8z       M93.6,313.2v-0.9h-0.1v0.9H93.6z M93.3,313.2L93.3,313.2l0-0.9h0V313.2z"></path>			</g>			<g>				<path class="st0" d="M99.9,312.3L99.9,312.3l0.9,0v0H99.9z M99.9,312.5h0.9v-0.1h-0.9V312.5z M99.9,312.8h0.9v-0.1h-0.9V312.8z       M99.9,313h0.9v-0.1h-0.9V313z M99.9,313.2h0.9v0L99.9,313.2L99.9,313.2z"></path>				<path class="st0" d="M99.7,318.8L99.7,318.8l1.4,0.1v-0.1H99.7z M99.7,319.2h1.4v-0.2h-1.4V319.2z M99.7,319.6h1.4v-0.2h-1.4      V319.6z M99.7,320h1.4v-0.2h-1.4V320z M99.7,320.2h1.4v-0.1L99.7,320.2L99.7,320.2z"></path>				<path class="st0" d="M99.4,325.4L99.4,325.4l1.9,0.1v-0.1H99.4z M99.4,326h1.9v-0.3h-1.9V326z M99.4,326.5h1.9v-0.3h-1.9V326.5z       M99.4,327h1.9v-0.3h-1.9V327z M99.4,327.3h1.9v-0.1L99.4,327.3L99.4,327.3z"></path>				<path class="st0" d="M99.1,331.9v0.1h2.4v-0.1H99.1z M99.1,332.7h2.4v-0.3h-2.4V332.7z M99.1,333.3h2.4V333h-2.4V333.3z       M99.1,333.9h2.4v-0.3h-2.4V333.9z M99.1,334.4h2.4v-0.1h-2.4V334.4z"></path>				<path class="st0" d="M98.9,338.5v0.1h3v-0.1H98.9z M98.9,339.4h3V339h-3V339.4z M98.9,340.1h3v-0.4h-3V340.1z M98.9,340.9h3      v-0.4h-3V340.9z M98.9,341.4h3v-0.1h-3V341.4z"></path>				<path class="st0" d="M98.6,345v0.2h3.5V345H98.6z M98.6,346.1h3.5v-0.5h-3.5V346.1z M98.6,347h3.5v-0.5h-3.5V347z M98.6,347.9      h3.5v-0.5h-3.5V347.9z M98.6,348.5h3.5v-0.2h-3.5V348.5z"></path>				<path class="st0" d="M98.4,351.6v0.2h4v-0.2H98.4z M98.4,352.8h4v-0.5h-4V352.8z M98.4,353.8h4v-0.5h-4V353.8z M98.4,354.9h4      v-0.5h-4V354.9z M98.4,355.6h4v-0.2h-4V355.6z"></path>				<path class="st0" d="M98.1,358.1v0.2h4.5v-0.2H98.1z M98.1,359.5h4.5v-0.6h-4.5V359.5z M98.1,360.7h4.5v-0.6h-4.5V360.7z       M98.1,361.8h4.5v-0.6h-4.5V361.8z M98.1,362.6h4.5v-0.2h-4.5V362.6z"></path>				<path class="st0" d="M97.8,364.7v0.2h5v-0.2H97.8z M97.8,366.2h5v-0.7h-5V366.2z M97.8,367.5h5v-0.7h-5V367.5z M97.8,368.8h5      v-0.7h-5V368.8z M97.8,369.7h5v-0.2h-5V369.7z"></path>				<path class="st0" d="M97.6,371.2v0.3h5.6v-0.3H97.6z M97.6,372.9h5.6v-0.7h-5.6V372.9z M97.6,374.4h5.6v-0.7h-5.6V374.4z       M97.6,375.8h5.6v-0.7h-5.6V375.8z M97.6,376.8h5.6v-0.3h-5.6V376.8z"></path>				<path class="st0" d="M109.6,376.8v-5.6h-0.3v5.6H109.6z M108.7,376.8v-5.6h-0.7v5.6H108.7z M107.2,376.8v-5.6h-0.7v5.6H107.2z       M105.8,376.8v-5.6h-0.7v5.6H105.8z M104.1,376.8h0.3v-5.6h-0.3V376.8z"></path>				<path class="st0" d="M109.4,369.7v-5h-0.2v5H109.4z M108.5,369.7v-5h-0.7v5H108.5z M107.2,369.7v-5h-0.7v5H107.2z M105.9,369.7      v-5h-0.7v5H105.9z M104.3,369.7h0.2v-5h-0.2V369.7z"></path>				<path class="st0" d="M109.1,362.6v-4.5h-0.2v4.5H109.1z M108.3,362.6v-4.5h-0.6v4.5H108.3z M107.2,362.6v-4.5h-0.6v4.5H107.2z       M106,362.6v-4.5h-0.6v4.5H106z M104.6,362.6h0.2v-4.5h-0.2V362.6z"></path>				<path class="st0" d="M108.9,355.6v-4h-0.2v4H108.9z M108.2,355.6v-4h-0.5v4H108.2z M107.1,355.6v-4h-0.5v4H107.1z M106.1,355.6      v-4h-0.5v4H106.1z M104.9,355.6h0.2v-4h-0.2V355.6z"></path>				<path class="st0" d="M108.6,348.5V345h-0.2v3.5H108.6z M108,348.5V345h-0.5v3.5H108z M107.1,348.5V345h-0.5v3.5H107.1z       M106.2,348.5V345h-0.5v3.5H106.2z M105.1,348.5h0.2V345h-0.2V348.5z"></path>				<path class="st0" d="M108.3,341.4v-3h-0.1v3H108.3z M107.8,341.4v-3h-0.4v3H107.8z M107,341.4v-3h-0.4v3H107z M106.3,341.4v-3      h-0.4v3H106.3z M105.4,341.4h0.1v-3h-0.1V341.4z"></path>				<path class="st0" d="M108.1,334.4v-2.5H108v2.5H108.1z M107.7,334.4v-2.5h-0.3v2.5H107.7z M107,334.4v-2.5h-0.3v2.5H107z       M106.4,334.4v-2.5h-0.3v2.5H106.4z M105.6,334.4h0.1v-2.5h-0.1V334.4z"></path>				<path class="st0" d="M107.8,327.3v-1.9h-0.1L107.8,327.3L107.8,327.3z M107.5,327.3v-1.9h-0.3v1.9H107.5z M107,327.3v-1.9h-0.3      v1.9H107z M106.5,327.3v-1.9h-0.3v1.9H106.5z M105.9,327.3L105.9,327.3l0.1-1.9h-0.1V327.3z"></path>				<path class="st0" d="M107.6,320.2v-1.4h-0.1L107.6,320.2L107.6,320.2z M107.3,320.2v-1.4h-0.2v1.4H107.3z M106.9,320.2v-1.4      h-0.2v1.4H106.9z M106.6,320.2v-1.4h-0.2v1.4H106.6z M106.1,320.2L106.1,320.2l0.1-1.4h-0.1V320.2z"></path>				<path class="st0" d="M107.3,313.2v-0.9h0L107.3,313.2L107.3,313.2z M107.2,313.2v-0.9H107v0.9H107.2z M106.9,313.2v-0.9h-0.1      v0.9H106.9z M106.7,313.2v-0.9h-0.1v0.9H106.7z M106.4,313.2L106.4,313.2l0-0.9h0V313.2z"></path>			</g>			<g>				<path class="st0" d="M113,312.3L113,312.3l0.9,0v0H113z M113,312.5h0.9v-0.1H113V312.5z M113,312.8h0.9v-0.1H113V312.8z       M113,313h0.9v-0.1H113V313z M113,313.2h0.9v0L113,313.2L113,313.2z"></path>				<path class="st0" d="M112.8,318.8L112.8,318.8l1.4,0.1v-0.1H112.8z M112.8,319.2h1.4v-0.2h-1.4V319.2z M112.8,319.6h1.4v-0.2      h-1.4V319.6z M112.8,320h1.4v-0.2h-1.4V320z M112.8,320.2h1.4v-0.1L112.8,320.2L112.8,320.2z"></path>				<path class="st0" d="M112.5,325.4L112.5,325.4l1.9,0.1v-0.1H112.5z M112.5,326h1.9v-0.3h-1.9V326z M112.5,326.5h1.9v-0.3h-1.9      V326.5z M112.5,327h1.9v-0.3h-1.9V327z M112.5,327.3h1.9v-0.1L112.5,327.3L112.5,327.3z"></path>				<path class="st0" d="M112.3,331.9v0.1h2.4v-0.1H112.3z M112.3,332.7h2.4v-0.3h-2.4V332.7z M112.3,333.3h2.4V333h-2.4V333.3z       M112.3,333.9h2.4v-0.3h-2.4V333.9z M112.3,334.4h2.4v-0.1h-2.4V334.4z"></path>				<path class="st0" d="M112,338.5v0.1h3v-0.1H112z M112,339.4h3V339h-3V339.4z M112,340.1h3v-0.4h-3V340.1z M112,340.9h3v-0.4h-3      V340.9z M112,341.4h3v-0.1h-3V341.4z"></path>				<path class="st0" d="M111.7,345v0.2h3.5V345H111.7z M111.7,346.1h3.5v-0.5h-3.5V346.1z M111.7,347h3.5v-0.5h-3.5V347z       M111.7,347.9h3.5v-0.5h-3.5V347.9z M111.7,348.5h3.5v-0.2h-3.5V348.5z"></path>				<path class="st0" d="M111.5,351.6v0.2h4v-0.2H111.5z M111.5,352.8h4v-0.5h-4V352.8z M111.5,353.8h4v-0.5h-4V353.8z M111.5,354.9      h4v-0.5h-4V354.9z M111.5,355.6h4v-0.2h-4V355.6z"></path>				<path class="st0" d="M111.2,358.1v0.2h4.5v-0.2H111.2z M111.2,359.5h4.5v-0.6h-4.5V359.5z M111.2,360.7h4.5v-0.6h-4.5V360.7z       M111.2,361.8h4.5v-0.6h-4.5V361.8z M111.2,362.6h4.5v-0.2h-4.5V362.6z"></path>				<path class="st0" d="M111,364.7v0.2h5v-0.2H111z M111,366.2h5v-0.7h-5V366.2z M111,367.5h5v-0.7h-5V367.5z M111,368.8h5v-0.7h-5      V368.8z M111,369.7h5v-0.2h-5V369.7z"></path>				<path class="st0" d="M110.7,371.2v0.3h5.6v-0.3H110.7z M110.7,372.9h5.6v-0.7h-5.6V372.9z M110.7,374.4h5.6v-0.7h-5.6V374.4z       M110.7,375.8h5.6v-0.7h-5.6V375.8z M110.7,376.8h5.6v-0.3h-5.6V376.8z"></path>				<path class="st0" d="M122.8,376.8v-5.6h-0.3v5.6H122.8z M121.8,376.8v-5.6h-0.7v5.6H121.8z M120.3,376.8v-5.6h-0.7v5.6H120.3z       M118.9,376.8v-5.6h-0.7v5.6H118.9z M117.2,376.8h0.3v-5.6h-0.3V376.8z"></path>				<path class="st0" d="M122.5,369.7v-5h-0.2v5H122.5z M121.6,369.7v-5H121v5H121.6z M120.3,369.7v-5h-0.7v5H120.3z M119,369.7v-5      h-0.7v5H119z M117.5,369.7h0.2v-5h-0.2V369.7z"></path>				<path class="st0" d="M122.2,362.6v-4.5H122v4.5H122.2z M121.5,362.6v-4.5h-0.6v4.5H121.5z M120.3,362.6v-4.5h-0.6v4.5H120.3z       M119.1,362.6v-4.5h-0.6v4.5H119.1z M117.7,362.6h0.2v-4.5h-0.2V362.6z"></path>				<path class="st0" d="M122,355.6v-4h-0.2v4H122z M121.3,355.6v-4h-0.5v4H121.3z M120.2,355.6v-4h-0.5v4H120.2z M119.2,355.6v-4      h-0.5v4H119.2z M118,355.6h0.2v-4H118V355.6z"></path>				<path class="st0" d="M121.7,348.5V345h-0.2v3.5H121.7z M121.1,348.5V345h-0.5v3.5H121.1z M120.2,348.5V345h-0.5v3.5H120.2z       M119.3,348.5V345h-0.5v3.5H119.3z M118.2,348.5h0.2V345h-0.2V348.5z"></path>				<path class="st0" d="M121.5,341.4v-3h-0.1v3H121.5z M120.9,341.4v-3h-0.4v3H120.9z M120.2,341.4v-3h-0.4v3H120.2z M119.4,341.4      v-3H119v3H119.4z M118.5,341.4h0.1v-3h-0.1V341.4z"></path>				<path class="st0" d="M121.2,334.4v-2.5h-0.1v2.5H121.2z M120.8,334.4v-2.5h-0.3v2.5H120.8z M120.1,334.4v-2.5h-0.3v2.5H120.1z       M119.5,334.4v-2.5h-0.3v2.5H119.5z M118.8,334.4h0.1v-2.5h-0.1V334.4z"></path>				<path class="st0" d="M121,327.3v-1.9h-0.1L121,327.3L121,327.3z M120.6,327.3v-1.9h-0.3v1.9H120.6z M120.1,327.3v-1.9h-0.3v1.9      H120.1z M119.6,327.3v-1.9h-0.3v1.9H119.6z M119,327.3L119,327.3l0.1-1.9H119V327.3z"></path>				<path class="st0" d="M120.7,320.2v-1.4h-0.1L120.7,320.2L120.7,320.2z M120.4,320.2v-1.4h-0.2v1.4H120.4z M120.1,320.2v-1.4      h-0.2v1.4H120.1z M119.7,320.2v-1.4h-0.2v1.4H119.7z M119.3,320.2L119.3,320.2l0.1-1.4h-0.1V320.2z"></path>				<path class="st0" d="M120.4,313.2v-0.9h0L120.4,313.2L120.4,313.2z M120.3,313.2v-0.9h-0.1v0.9H120.3z M120,313.2v-0.9h-0.1v0.9      H120z M119.8,313.2v-0.9h-0.1v0.9H119.8z M119.5,313.2L119.5,313.2l0-0.9h0V313.2z"></path>			</g>			<g>				<path class="st0" d="M126.2,312.3L126.2,312.3l0.9,0v0H126.2z M126.2,312.5h0.9v-0.1h-0.9V312.5z M126.2,312.8h0.9v-0.1h-0.9      V312.8z M126.2,313h0.9v-0.1h-0.9V313z M126.2,313.2h0.9v0L126.2,313.2L126.2,313.2z"></path>				<path class="st0" d="M125.9,318.8L125.9,318.8l1.4,0.1v-0.1H125.9z M125.9,319.2h1.4v-0.2h-1.4V319.2z M125.9,319.6h1.4v-0.2      h-1.4V319.6z M125.9,320h1.4v-0.2h-1.4V320z M125.9,320.2h1.4v-0.1L125.9,320.2L125.9,320.2z"></path>				<path class="st0" d="M125.6,325.4L125.6,325.4l1.9,0.1v-0.1H125.6z M125.6,326h1.9v-0.3h-1.9V326z M125.6,326.5h1.9v-0.3h-1.9      V326.5z M125.6,327h1.9v-0.3h-1.9V327z M125.6,327.3h1.9v-0.1L125.6,327.3L125.6,327.3z"></path>				<path class="st0" d="M125.4,331.9v0.1h2.4v-0.1H125.4z M125.4,332.7h2.4v-0.3h-2.4V332.7z M125.4,333.3h2.4V333h-2.4V333.3z       M125.4,333.9h2.4v-0.3h-2.4V333.9z M125.4,334.4h2.4v-0.1h-2.4V334.4z"></path>				<path class="st0" d="M125.1,338.5v0.1h3v-0.1H125.1z M125.1,339.4h3V339h-3V339.4z M125.1,340.1h3v-0.4h-3V340.1z M125.1,340.9      h3v-0.4h-3V340.9z M125.1,341.4h3v-0.1h-3V341.4z"></path>				<path class="st0" d="M124.9,345v0.2h3.5V345H124.9z M124.9,346.1h3.5v-0.5h-3.5V346.1z M124.9,347h3.5v-0.5h-3.5V347z       M124.9,347.9h3.5v-0.5h-3.5V347.9z M124.9,348.5h3.5v-0.2h-3.5V348.5z"></path>				<path class="st0" d="M124.6,351.6v0.2h4v-0.2H124.6z M124.6,352.8h4v-0.5h-4V352.8z M124.6,353.8h4v-0.5h-4V353.8z M124.6,354.9      h4v-0.5h-4V354.9z M124.6,355.6h4v-0.2h-4V355.6z"></path>				<path class="st0" d="M124.3,358.1v0.2h4.5v-0.2H124.3z M124.3,359.5h4.5v-0.6h-4.5V359.5z M124.3,360.7h4.5v-0.6h-4.5V360.7z       M124.3,361.8h4.5v-0.6h-4.5V361.8z M124.3,362.6h4.5v-0.2h-4.5V362.6z"></path>				<path class="st0" d="M124.1,364.7v0.2h5v-0.2H124.1z M124.1,366.2h5v-0.7h-5V366.2z M124.1,367.5h5v-0.7h-5V367.5z M124.1,368.8      h5v-0.7h-5V368.8z M124.1,369.7h5v-0.2h-5V369.7z"></path>				<path class="st0" d="M123.8,371.2v0.3h5.6v-0.3H123.8z M123.8,372.9h5.6v-0.7h-5.6V372.9z M123.8,374.4h5.6v-0.7h-5.6V374.4z       M123.8,375.8h5.6v-0.7h-5.6V375.8z M123.8,376.8h5.6v-0.3h-5.6V376.8z"></path>				<path class="st0" d="M135.9,376.8v-5.6h-0.3v5.6H135.9z M134.9,376.8v-5.6h-0.7v5.6H134.9z M133.5,376.8v-5.6h-0.7v5.6H133.5z       M132,376.8v-5.6h-0.7v5.6H132z M130.3,376.8h0.3v-5.6h-0.3V376.8z"></path>				<path class="st0" d="M135.6,369.7v-5h-0.2v5H135.6z M134.7,369.7v-5h-0.7v5H134.7z M133.4,369.7v-5h-0.7v5H133.4z M132.1,369.7      v-5h-0.7v5H132.1z M130.6,369.7h0.2v-5h-0.2V369.7z"></path>				<path class="st0" d="M135.4,362.6v-4.5h-0.2v4.5H135.4z M134.6,362.6v-4.5H134v4.5H134.6z M133.4,362.6v-4.5h-0.6v4.5H133.4z       M132.2,362.6v-4.5h-0.6v4.5H132.2z M130.8,362.6h0.2v-4.5h-0.2V362.6z"></path>				<path class="st0" d="M135.1,355.6v-4h-0.2v4H135.1z M134.4,355.6v-4h-0.5v4H134.4z M133.4,355.6v-4h-0.5v4H133.4z M132.3,355.6      v-4h-0.5v4H132.3z M131.1,355.6h0.2v-4h-0.2V355.6z"></path>				<path class="st0" d="M134.9,348.5V345h-0.2v3.5H134.9z M134.2,348.5V345h-0.5v3.5H134.2z M133.3,348.5V345h-0.5v3.5H133.3z       M132.4,348.5V345H132v3.5H132.4z M131.4,348.5h0.2V345h-0.2V348.5z"></path>				<path class="st0" d="M134.6,341.4v-3h-0.1v3H134.6z M134.1,341.4v-3h-0.4v3H134.1z M133.3,341.4v-3h-0.4v3H133.3z M132.5,341.4      v-3h-0.4v3H132.5z M131.6,341.4h0.1v-3h-0.1V341.4z"></path>				<path class="st0" d="M134.3,334.4v-2.5h-0.1v2.5H134.3z M133.9,334.4v-2.5h-0.3v2.5H133.9z M133.3,334.4v-2.5h-0.3v2.5H133.3z       M132.6,334.4v-2.5h-0.3v2.5H132.6z M131.9,334.4h0.1v-2.5h-0.1V334.4z"></path>				<path class="st0" d="M134.1,327.3v-1.9H134L134.1,327.3L134.1,327.3z M133.7,327.3v-1.9h-0.3v1.9H133.7z M133.2,327.3v-1.9H133      v1.9H133.2z M132.7,327.3v-1.9h-0.3v1.9H132.7z M132.1,327.3L132.1,327.3l0.1-1.9h-0.1V327.3z"></path>				<path class="st0" d="M133.8,320.2v-1.4h-0.1L133.8,320.2L133.8,320.2z M133.6,320.2v-1.4h-0.2v1.4H133.6z M133.2,320.2v-1.4H133      v1.4H133.2z M132.8,320.2v-1.4h-0.2v1.4H132.8z M132.4,320.2L132.4,320.2l0.1-1.4h-0.1V320.2z"></path>				<path class="st0" d="M133.6,313.2v-0.9h0L133.6,313.2L133.6,313.2z M133.4,313.2v-0.9h-0.1v0.9H133.4z M133.2,313.2v-0.9h-0.1      v0.9H133.2z M132.9,313.2v-0.9h-0.1v0.9H132.9z M132.7,313.2L132.7,313.2l0-0.9h0V313.2z"></path>			</g>			<g>				<path class="st0" d="M139.5,312.3L139.5,312.3l0.9,0v0H139.5z M139.5,312.5h0.9v-0.1h-0.9V312.5z M139.5,312.8h0.9v-0.1h-0.9      V312.8z M139.5,313h0.9v-0.1h-0.9V313z M139.5,313.2h0.9v0L139.5,313.2L139.5,313.2z"></path>				<path class="st0" d="M139.3,318.8L139.3,318.8l1.4,0.1v-0.1H139.3z M139.3,319.2h1.4v-0.2h-1.4V319.2z M139.3,319.6h1.4v-0.2      h-1.4V319.6z M139.3,320h1.4v-0.2h-1.4V320z M139.3,320.2h1.4v-0.1L139.3,320.2L139.3,320.2z"></path>				<path class="st0" d="M139,325.4L139,325.4l1.9,0.1v-0.1H139z M139,326h1.9v-0.3H139V326z M139,326.5h1.9v-0.3H139V326.5z       M139,327h1.9v-0.3H139V327z M139,327.3h1.9v-0.1L139,327.3L139,327.3z"></path>				<path class="st0" d="M138.7,331.9v0.1h2.4v-0.1H138.7z M138.7,332.7h2.4v-0.3h-2.4V332.7z M138.7,333.3h2.4V333h-2.4V333.3z       M138.7,333.9h2.4v-0.3h-2.4V333.9z M138.7,334.4h2.4v-0.1h-2.4V334.4z"></path>				<path class="st0" d="M138.5,338.5v0.1h3v-0.1H138.5z M138.5,339.4h3V339h-3V339.4z M138.5,340.1h3v-0.4h-3V340.1z M138.5,340.9      h3v-0.4h-3V340.9z M138.5,341.4h3v-0.1h-3V341.4z"></path>				<path class="st0" d="M138.2,345v0.2h3.5V345H138.2z M138.2,346.1h3.5v-0.5h-3.5V346.1z M138.2,347h3.5v-0.5h-3.5V347z       M138.2,347.9h3.5v-0.5h-3.5V347.9z M138.2,348.5h3.5v-0.2h-3.5V348.5z"></path>				<path class="st0" d="M138,351.6v0.2h4v-0.2H138z M138,352.8h4v-0.5h-4V352.8z M138,353.8h4v-0.5h-4V353.8z M138,354.9h4v-0.5h-4      V354.9z M138,355.6h4v-0.2h-4V355.6z"></path>				<path class="st0" d="M137.7,358.1v0.2h4.5v-0.2H137.7z M137.7,359.5h4.5v-0.6h-4.5V359.5z M137.7,360.7h4.5v-0.6h-4.5V360.7z       M137.7,361.8h4.5v-0.6h-4.5V361.8z M137.7,362.6h4.5v-0.2h-4.5V362.6z"></path>				<path class="st0" d="M137.5,364.7v0.2h5v-0.2H137.5z M137.5,366.2h5v-0.7h-5V366.2z M137.5,367.5h5v-0.7h-5V367.5z M137.5,368.8      h5v-0.7h-5V368.8z M137.5,369.7h5v-0.2h-5V369.7z"></path>				<path class="st0" d="M137.2,371.2v0.3h5.6v-0.3H137.2z M137.2,372.9h5.6v-0.7h-5.6V372.9z M137.2,374.4h5.6v-0.7h-5.6V374.4z       M137.2,375.8h5.6v-0.7h-5.6V375.8z M137.2,376.8h5.6v-0.3h-5.6V376.8z"></path>				<path class="st0" d="M149.3,376.8v-5.6H149v5.6H149.3z M148.3,376.8v-5.6h-0.7v5.6H148.3z M146.8,376.8v-5.6h-0.7v5.6H146.8z       M145.4,376.8v-5.6h-0.7v5.6H145.4z M143.7,376.8h0.3v-5.6h-0.3V376.8z"></path>				<path class="st0" d="M149,369.7v-5h-0.2v5H149z M148.1,369.7v-5h-0.7v5H148.1z M146.8,369.7v-5h-0.7v5H146.8z M145.5,369.7v-5      h-0.7v5H145.5z M144,369.7h0.2v-5H144V369.7z"></path>				<path class="st0" d="M148.7,362.6v-4.5h-0.2v4.5H148.7z M147.9,362.6v-4.5h-0.6v4.5H147.9z M146.8,362.6v-4.5h-0.6v4.5H146.8z       M145.6,362.6v-4.5H145v4.5H145.6z M144.2,362.6h0.2v-4.5h-0.2V362.6z"></path>				<path class="st0" d="M148.5,355.6v-4h-0.2v4H148.5z M147.8,355.6v-4h-0.5v4H147.8z M146.7,355.6v-4h-0.5v4H146.7z M145.7,355.6      v-4h-0.5v4H145.7z M144.5,355.6h0.2v-4h-0.2V355.6z"></path>				<path class="st0" d="M148.2,348.5V345h-0.2v3.5H148.2z M147.6,348.5V345h-0.5v3.5H147.6z M146.7,348.5V345h-0.5v3.5H146.7z       M145.8,348.5V345h-0.5v3.5H145.8z M144.7,348.5h0.2V345h-0.2V348.5z"></path>				<path class="st0" d="M148,341.4v-3h-0.1v3H148z M147.4,341.4v-3h-0.4v3H147.4z M146.7,341.4v-3h-0.4v3H146.7z M145.9,341.4v-3      h-0.4v3H145.9z M145,341.4h0.1v-3H145V341.4z"></path>				<path class="st0" d="M147.7,334.4v-2.5h-0.1v2.5H147.7z M147.3,334.4v-2.5H147v2.5H147.3z M146.6,334.4v-2.5h-0.3v2.5H146.6z       M146,334.4v-2.5h-0.3v2.5H146z M145.2,334.4h0.1v-2.5h-0.1V334.4z"></path>				<path class="st0" d="M147.4,327.3v-1.9h-0.1L147.4,327.3L147.4,327.3z M147.1,327.3v-1.9h-0.3v1.9H147.1z M146.6,327.3v-1.9      h-0.3v1.9H146.6z M146.1,327.3v-1.9h-0.3v1.9H146.1z M145.5,327.3L145.5,327.3l0.1-1.9h-0.1V327.3z"></path>				<path class="st0" d="M147.2,320.2v-1.4h-0.1L147.2,320.2L147.2,320.2z M146.9,320.2v-1.4h-0.2v1.4H146.9z M146.6,320.2v-1.4      h-0.2v1.4H146.6z M146.2,320.2v-1.4H146v1.4H146.2z M145.8,320.2L145.8,320.2l0.1-1.4h-0.1V320.2z"></path>				<path class="st0" d="M146.9,313.2v-0.9h0L146.9,313.2L146.9,313.2z M146.8,313.2v-0.9h-0.1v0.9H146.8z M146.5,313.2v-0.9h-0.1      v0.9H146.5z M146.3,313.2v-0.9h-0.1v0.9H146.3z M146,313.2L146,313.2l0-0.9h0V313.2z"></path>			</g>		</g>	</g>	<g class="st3">		<g>			<rect x="529.3" y="395" class="st0" width="1.6" height="61.5"></rect>			<rect x="503.1" y="395" class="st0" width="1.6" height="61.5"></rect>			<rect x="524" y="395" class="st0" width="1.6" height="53.7"></rect>			<rect x="518.8" y="395" class="st0" width="1.6" height="53.7"></rect>			<rect x="513.6" y="395" class="st0" width="1.6" height="53.7"></rect>			<rect x="508.3" y="395" class="st0" width="1.6" height="53.7"></rect>			<rect x="529.3" y="395" class="st0" width="1.6" height="61.5"></rect>			<rect x="524" y="395" class="st0" width="1.6" height="53.7"></rect>			<rect x="518.8" y="395" class="st0" width="1.6" height="53.7"></rect>			<rect x="513.6" y="395" class="st0" width="1.6" height="53.7"></rect>			<rect x="508.3" y="395" class="st0" width="1.6" height="53.7"></rect>			<rect x="476.9" y="395" class="st0" width="1.6" height="61.5"></rect>			<rect x="497.8" y="395" class="st0" width="1.6" height="53.7"></rect>			<rect x="492.6" y="395" class="st0" width="1.6" height="53.7"></rect>			<rect x="487.3" y="395" class="st0" width="1.6" height="53.7"></rect>			<rect x="482.1" y="395" class="st0" width="1.6" height="53.7"></rect>			<rect x="497.8" y="395" class="st0" width="1.6" height="53.7"></rect>			<rect x="492.6" y="395" class="st0" width="1.6" height="53.7"></rect>			<rect x="487.3" y="395" class="st0" width="1.6" height="53.7"></rect>			<rect x="482.1" y="395" class="st0" width="1.6" height="53.7"></rect>			<rect x="455.9" y="395" class="st0" width="1.6" height="61.5"></rect>			<rect x="476.9" y="395" class="st0" width="1.6" height="53.7"></rect>			<rect x="471.6" y="395" class="st0" width="1.6" height="53.7"></rect>			<rect x="466.4" y="395" class="st0" width="1.6" height="53.7"></rect>			<rect x="461.1" y="395" class="st0" width="1.6" height="53.7"></rect>			<rect x="471.6" y="395" class="st0" width="1.6" height="53.7"></rect>			<rect x="466.4" y="395" class="st0" width="1.6" height="53.7"></rect>			<rect x="461.1" y="395" class="st0" width="1.6" height="53.7"></rect>			<rect x="429.7" y="395" class="st0" width="1.6" height="61.5"></rect>			<rect x="450.6" y="395" class="st0" width="1.6" height="53.7"></rect>			<rect x="445.4" y="395" class="st0" width="1.6" height="53.7"></rect>			<rect x="440.2" y="395" class="st0" width="1.6" height="53.7"></rect>			<rect x="434.9" y="395" class="st0" width="1.6" height="53.7"></rect>			<rect x="450.6" y="395" class="st0" width="1.6" height="53.7"></rect>			<rect x="445.4" y="395" class="st0" width="1.6" height="53.7"></rect>			<rect x="440.2" y="395" class="st0" width="1.6" height="53.7"></rect>			<rect x="434.9" y="395" class="st0" width="1.6" height="53.7"></rect>			<rect x="403.5" y="395" class="st0" width="1.6" height="60"></rect>			<rect x="424.4" y="395" class="st0" width="1.6" height="53.7"></rect>			<rect x="419.2" y="395" class="st0" width="1.6" height="53.7"></rect>			<rect x="413.9" y="395" class="st0" width="1.6" height="53.7"></rect>			<rect x="408.7" y="395" class="st0" width="1.6" height="53.7"></rect>			<rect x="424.4" y="395" class="st0" width="1.6" height="53.7"></rect>			<rect x="419.2" y="395" class="st0" width="1.6" height="53.7"></rect>			<rect x="413.9" y="395" class="st0" width="1.6" height="53.7"></rect>			<rect x="408.7" y="395" class="st0" width="1.6" height="53.7"></rect>			<rect x="377.2" y="395" class="st0" width="1.6" height="61.5"></rect>			<rect x="398.2" y="395" class="st0" width="1.6" height="53.7"></rect>			<rect x="393" y="395" class="st0" width="1.6" height="53.7"></rect>			<rect x="387.7" y="395" class="st0" width="1.6" height="53.7"></rect>			<rect x="382.5" y="395" class="st0" width="1.6" height="53.7"></rect>			<rect x="398.2" y="395" class="st0" width="1.6" height="53.7"></rect>			<rect x="393" y="395" class="st0" width="1.6" height="53.7"></rect>			<rect x="387.7" y="395" class="st0" width="1.6" height="53.7"></rect>			<rect x="382.5" y="395" class="st0" width="1.6" height="53.7"></rect>			<rect x="356.3" y="395" class="st0" width="1.6" height="61.5"></rect>			<rect x="377.2" y="395" class="st0" width="1.6" height="53.7"></rect>			<rect x="372" y="395" class="st0" width="1.6" height="53.7"></rect>			<rect x="366.8" y="395" class="st0" width="1.6" height="53.7"></rect>			<rect x="361.5" y="395" class="st0" width="1.6" height="53.7"></rect>			<rect x="372" y="395" class="st0" width="1.6" height="53.7"></rect>			<rect x="366.8" y="395" class="st0" width="1.6" height="53.7"></rect>			<rect x="361.5" y="395" class="st0" width="1.6" height="53.7"></rect>			<rect x="330.1" y="395" class="st0" width="1.6" height="61.5"></rect>			<rect x="351" y="395" class="st0" width="1.6" height="53.7"></rect>			<rect x="345.8" y="395" class="st0" width="1.6" height="53.7"></rect>			<rect x="340.5" y="395" class="st0" width="1.6" height="53.7"></rect>			<rect x="335.3" y="395" class="st0" width="1.6" height="53.7"></rect>			<rect x="351" y="395" class="st0" width="1.6" height="53.7"></rect>			<rect x="345.8" y="395" class="st0" width="1.6" height="53.7"></rect>			<rect x="340.5" y="395" class="st0" width="1.6" height="53.7"></rect>			<rect x="335.3" y="395" class="st0" width="1.6" height="53.7"></rect>		</g>	</g>	<g>		<polygon class="st0" points="141.4,470.1 142.5,469 138.8,465.2 142.5,461.4 141.4,460.3 136.5,465.2   "></polygon>		<polygon class="st0" points="137.1,470.1 138.2,469 134.4,465.2 138.2,461.4 137.1,460.3 132.2,465.2   "></polygon>		<polygon class="st0" points="132.8,470.1 133.9,469 130.1,465.2 133.9,461.4 132.8,460.3 127.9,465.2   "></polygon>		<polygon class="st0" points="128.4,470.1 129.6,469 125.8,465.2 129.6,461.4 128.4,460.3 123.6,465.2   "></polygon>		<polygon class="st0" points="124.1,470.1 125.2,469 121.5,465.2 125.2,461.4 124.1,460.3 119.2,465.2   "></polygon>	</g>	<g>		<g>			<polygon class="st0" points="54.7,180.2 49.8,180.2 44.1,189.8 49,189.8    "></polygon>			<polygon class="st0" points="63.5,180.2 58.6,180.2 53,189.8 57.9,189.8    "></polygon>			<polygon class="st0" points="72.3,180.2 67.4,180.2 61.8,189.8 66.7,189.8    "></polygon>			<polygon class="st0" points="81.1,180.2 76.3,180.2 70.6,189.8 75.5,189.8    "></polygon>			<polygon class="st0" points="90,180.2 85.1,180.2 79.4,189.8 84.3,189.8    "></polygon>			<polygon class="st0" points="98.8,180.2 93.9,180.2 88.3,189.8 93.2,189.8    "></polygon>		</g>	</g>	<g>		<g>			<polygon class="st0" points="97.2,329.3 97.2,326.6 94.9,328 92.6,329.3 94.9,330.6 97.2,331.9    "></polygon>			<polygon class="st0" points="91.9,329.3 91.9,326.6 89.6,328 87.3,329.3 89.6,330.6 91.9,331.9    "></polygon>			<polygon class="st0" points="86.7,329.3 86.7,326.6 84.4,328 82.1,329.3 84.4,330.6 86.7,331.9    "></polygon>		</g>		<g>			<path class="st0" d="M103.1,328.9h-3.2v0.8h3.2V328.9z M109.4,328.9h-3.2v0.8h3.2V328.9z M115.8,328.9h-3.2v0.8h3.2V328.9z      M122.1,328.9h-3.2v0.8h3.2V328.9z M128.4,328.9h-3.2v0.8h3.2V328.9z M134.8,328.9h-3.2v0.8h3.2V328.9z M141.1,328.9H138v0.8h3.2     V328.9z M147.5,328.9h-3.2v0.8h3.2V328.9z M153.8,328.9h-3.2v0.8h3.2V328.9z M160.2,328.9H157v0.8h3.2V328.9z M166.5,328.9h-3.2     v0.8h3.2V328.9z M172.9,328.9h-3.2v0.8h3.2V328.9z M179.2,328.9h-3.2v0.8h3.2V328.9z M185.6,328.9h-3.2v0.8h3.2V328.9z      M191.9,328.9h-3.2v0.8h3.2V328.9z M198.3,328.9h-3.2v0.8h3.2V328.9z M204.6,328.9h-3.2v0.8h3.2V328.9z M211,328.9h-3.2v0.8h3.2     V328.9z M217.3,328.9h-3.2v0.8h3.2V328.9z M223.7,328.9h-3.2v0.8h3.2V328.9z M230,328.9h-3.2v0.8h3.2V328.9z M236.4,328.9h-3.2     v0.8h3.2V328.9z M242.7,328.9h-3.2v0.8h3.2V328.9z M249.1,328.9h-3.2v0.8h3.2V328.9z M255.4,328.9h-3.2v0.8h3.2V328.9z"></path>		</g>		<g>			<polygon class="st0" points="255.4,172.3 258,172.3 256.7,170 255.4,167.7 254,170 252.7,172.3    "></polygon>			<polygon class="st0" points="255.4,167.1 258,167.1 256.7,164.8 255.4,162.5 254,164.8 252.7,167.1    "></polygon>			<polygon class="st0" points="255.4,161.8 258,161.8 256.7,159.5 255.4,157.2 254,159.5 252.7,161.8    "></polygon>		</g>		<g>			<path class="st0" d="M255.8,178.2V175H255v3.2H255.8z M255.8,184.5v-3.2H255v3.2H255.8z M255.8,190.9v-3.2H255v3.2H255.8z      M255.8,197.2v-3.2H255v3.2H255.8z M255.8,203.6v-3.2H255v3.2H255.8z M255.8,209.9v-3.2H255v3.2H255.8z M255.8,216.3v-3.2H255     v3.2H255.8z M255.8,222.6v-3.2H255v3.2H255.8z M255.8,229v-3.2H255v3.2H255.8z M255.8,235.3v-3.2H255v3.2H255.8z M255.8,241.7     v-3.2H255v3.2H255.8z M255.8,248v-3.2H255v3.2H255.8z M255.8,254.4v-3.2H255v3.2H255.8z M255.8,260.7v-3.2H255v3.2H255.8z      M255.8,267.1v-3.2H255v3.2H255.8z M255.8,273.4v-3.2H255v3.2H255.8z M255.8,279.8v-3.2H255v3.2H255.8z M255.8,286.1v-3.2H255     v3.2H255.8z M255.8,292.5v-3.2H255v3.2H255.8z M255.8,298.8v-3.2H255v3.2H255.8z M255.8,305.2V302H255v3.2H255.8z M255.8,311.5     v-3.2H255v3.2H255.8z M255.8,317.9v-3.2H255v3.2H255.8z M255.8,324.2V321H255v3.2H255.8z M255.8,330.6v-3.2H255v3.2H255.8z"></path>		</g>		<path class="st0" d="M252.3,329.3c0,1.8,1.4,3.2,3.2,3.2c1.8,0,3.2-1.4,3.2-3.2c0-1.8-1.4-3.2-3.2-3.2    C253.7,326.1,252.3,327.5,252.3,329.3z"></path>	</g></g></svg>