<svg xmlns="http://www.w3.org/2000/svg" xml:space="preserve" width="682.66669" height="682.66669" viewBox="0 0 682.66669 682.66669">  <defs id="defs3106">    <clipPath id="clipPath3116">      <path d="M 0,512 H 512 V 0 H 0 Z" id="path3114"></path>    </clipPath>  </defs>  <g id="g3108" transform="matrix(1.3333333,0,0,-1.3333333,0,682.66667)">    <g id="g3110">      <g id="g3112" clip-path="url(#clipPath3116)">        <g id="g3118" transform="translate(291.4297,501.8896)">          <path d="M 0,0 C 116.11,0 210.57,-94.46 210.57,-210.569" style="fill:none;stroke:currentColor;stroke-width:20;stroke-linecap:round;stroke-linejoin:round;stroke-miterlimit:10;stroke-dasharray:none;stroke-opacity:1" id="path3120"></path>        </g>        <g id="g3122" transform="translate(291.4297,441.7305)">          <path d="M 0,0 C 82.931,0 150.41,-67.48 150.41,-150.41" style="fill:none;stroke:currentColor;stroke-width:20;stroke-linecap:round;stroke-linejoin:round;stroke-miterlimit:10;stroke-dasharray:none;stroke-opacity:1" id="path3124"></path>        </g>        <g id="g3126" transform="translate(291.4297,381.5596)">          <path d="M 0,0 C 49.761,0 90.24,-40.479 90.24,-90.239" style="fill:none;stroke:currentColor;stroke-width:20;stroke-linecap:round;stroke-linejoin:round;stroke-miterlimit:10;stroke-dasharray:none;stroke-opacity:1" id="path3128"></path>        </g>        <g id="g3130" transform="translate(291.4297,321.4004)">          <path d="M 0,0 C 16.61,0 30.08,-13.471 30.08,-30.08" style="fill:none;stroke:currentColor;stroke-width:20;stroke-linecap:round;stroke-linejoin:round;stroke-miterlimit:10;stroke-dasharray:none;stroke-opacity:1" id="path3132"></path>        </g>        <g id="g3134" transform="translate(187.418,187.1963)">          <path d="m 0,0 c 0,-5.523 -4.477,-10 -10,-10 -5.522,0 -10,4.477 -10,10 0,5.522 4.478,10 10,10 C -4.477,10 0,5.522 0,0" style="fill:currentColor;fill-opacity:1;fill-rule:nonzero;stroke:none" id="path3136"></path>        </g>        <g id="g3138" transform="translate(148.1973,221.3926)">          <path d="m 0,0 c -6.344,8.333 -12.356,16.938 -18.018,25.798 -7.439,11.649 -5.189,27.079 4.58,36.849 l 33.951,33.951 c 7.309,7.299 7.309,19.149 0,26.45 l -79.901,79.899 c -7.3,7.311 -19.149,7.311 -26.449,0 l -20.221,-20.219 c -32.819,-32.811 -41.689,-82.89 -21.089,-124.47 36.65,-73.99 112.07,-187.41 257.37,-258.66 41.71,-20.441 92.02,-11.771 124.86,21.069 l 20.68,20.681 c 7.309,7.299 7.309,19.149 0,26.46 l -79.901,79.889 c -7.3,7.311 -19.149,7.311 -26.449,0 l -33.95,-33.95 c -9.771,-9.769 -25.2,-12.019 -36.851,-4.58 -12.603,8.055 -24.698,16.822 -36.228,26.25" style="fill:none;stroke:currentColor;stroke-width:20;stroke-linecap:round;stroke-linejoin:round;stroke-miterlimit:10;stroke-dasharray:none;stroke-opacity:1" id="path3140"></path>        </g>      </g>    </g>  </g></svg>