<svg xmlns="http://www.w3.org/2000/svg"  xml:space="preserve" width="682.66669" height="682.66669" viewBox="0 0 682.66669 682.66669">  <defs id="defs1798">    <clipPath id="clipPath1816">      <path d="M 0,512 H 512 V 0 H 0 Z" id="path1814"></path>    </clipPath>  </defs>  <g id="g1800" transform="matrix(1.3333333,0,0,-1.3333333,0,682.66667)">    <g id="g1802" transform="translate(293.3574,440.1401)">      <path d="M 0,0 H 164.597" style="fill:none;stroke:currentColor;stroke-width:15;stroke-linecap:round;stroke-linejoin:round;stroke-miterlimit:10;stroke-dasharray:none;stroke-opacity:1" id="path1804"></path>    </g>    <g id="g1806" transform="translate(293.3574,386.3022)">      <path d="M 0,0 H 89.602" style="fill:none;stroke:currentColor;stroke-width:15;stroke-linecap:round;stroke-linejoin:round;stroke-miterlimit:10;stroke-dasharray:none;stroke-opacity:1" id="path1808"></path>    </g>    <g id="g1810">      <g id="g1812" clip-path="url(#clipPath1816)">        <g id="g1818" transform="translate(200.7129,54.5259)">          <path d="m 0,0 c 50.171,-50.171 131.513,-50.171 181.684,0 l 14.083,14.083 c 20.556,20.557 19.119,54.301 -3.111,73.035 l -35.187,29.653 c -19.456,16.396 -48.226,15.171 -66.217,-2.821 L 71.823,94.522 c -8.134,-8.134 -21.322,-8.134 -29.456,0 l -103.43,103.43 c -8.134,8.134 -8.134,21.322 0,29.456 l 19.428,19.428 c 17.992,17.992 19.217,46.761 2.821,66.218 l -29.653,35.187 c -18.733,22.23 -52.478,23.667 -73.034,3.111 l -14.084,-14.084 c -50.171,-50.17 -50.171,-131.513 0,-181.683 L -21.388,21.387" style="fill:none;stroke:currentColor;stroke-width:15;stroke-linecap:round;stroke-linejoin:round;stroke-miterlimit:10;stroke-dasharray:none;stroke-opacity:1" id="path1820"></path>        </g>        <g id="g1822" transform="translate(285.5664,162.0786)">          <path d="M 0,0 110.913,-93.469" style="fill:none;stroke:currentColor;stroke-width:15;stroke-linecap:round;stroke-linejoin:round;stroke-miterlimit:10;stroke-dasharray:none;stroke-opacity:1" id="path1824"></path>        </g>        <g id="g1826" transform="translate(59.2119,405.8774)">          <path d="M 0,0 V 0 L 93.469,-110.913" style="fill:none;stroke:currentColor;stroke-width:15;stroke-linecap:round;stroke-linejoin:round;stroke-miterlimit:10;stroke-dasharray:none;stroke-opacity:1" id="path1828"></path>        </g>        <g id="g1830" transform="translate(246.8115,399.9258)">          <path d="m 0,0 v -32.27 c 0,-18.114 14.685,-32.799 32.799,-32.799 3.188,0 5.779,-2.575 5.798,-5.764 l 0.273,-46.963 c 0.047,-8.079 10.243,-11.588 15.253,-5.248 l 44.062,55.772 c 1.099,1.392 2.776,2.203 4.549,2.203 h 127.953 c 14.913,0 27.001,12.089 27.001,27.001 V 68.175 c 0,14.913 -12.088,27.001 -27.001,27.001 L 27,95.176 c -14.912,0 -27,-12.088 -27,-27 V 30.107" style="fill:none;stroke:currentColor;stroke-width:15;stroke-linecap:round;stroke-linejoin:round;stroke-miterlimit:10;stroke-dasharray:none;stroke-opacity:1" id="path1832"></path>        </g>      </g>    </g>  </g></svg>